<?xml version="1.0" encoding="UTF-8"?>
<svg xmlns="http://www.w3.org/2000/svg" version="1.1" viewBox="0 0 708.66 566.93">
  <!-- Generator: Adobe Illustrator 29.0.1, SVG Export Plug-In . SVG Version: 2.1.0 Build 192)  -->
  <defs>
    <style>
      .st0 {
        fill: #fcfcfc;
      }

      .st1 {
        fill: #fff;
      }

      .st2 {
        fill: #f2f2f2;
      }

      .st3 {
        isolation: isolate;
      }

      .st4 {
        fill: #ccc;
      }

      .st5 {
        mix-blend-mode: hard-light;
      }
    </style>
  </defs>
  <g class="st3">
    <g id="Capa_2">
      <path class="st0" d="M470.91,486.78c-114.24,108.49-340.57-80.19-346.23-218.36-5.12-125.06,152.83-136.35,255.66-45.79,0,0-50.94-50-136.79-50s-104.72,63.21-94.34,120.75c6.72,37.24,54.02,129.96,133.02,178.3,124.66,76.29,188.68,15.09,188.68,15.09Z"/>
      <path class="st4" d="M478.78,474.93l-47.19-108.71c-4.5-10.37-6.8-21.44-9.84-32.33-28.98-103.96,69.32-132.37,93.12-179.22,25.27-49.72-18.43-108.28-18.43-108.28,0,0,78.89,90.69,90.69,119.5,7.23,17.64,3.17,37.92-10.12,51.59-30.54,31.43-113.98,130.21-98.24,257.45h0Z"/>
      <path class="st2" d="M462.07,430.47s-2.14-12.63-11.53-28.88c-12.33-21.33-25.95-51.15-29-68.67-5.05-29.04-4.93-53.36,30.13-82.74,28.21-23.64,50.55-51.09,14.81-101.95h0c38.69,49.74,92.18,66.93,38.91,136.15h0c-55.52,75.53-43.33,146.08-43.33,146.08Z"/>
      <g class="st5">
        <path class="st1" d="M307.51,345.17c-.09.2-.02.64-.13.76-.36.41-1.04,1.37-1.55,1.7-.64.43-1.44.36-1.44,1.6,0,.41.33,1.04.33,1.32,0,.05-.44,1.14-.44,1.14-.05,0-.44.41-.44.51,0,.38,0,.79.27,1.02.02.18-.04.31-.04.64,0,.66.49,1.4,1.04,1.4,1.35,0,1.55-1.7,1.95-2.85.49-1.45,1-2.72,1-4.58.04,0,.27.08.38.13v-.38c-.22-.66-.16-2.31-.91-2.42Z"/>
        <path class="st1" d="M326.91,331.11c0,.36.24.71.56.71.42,0,.71-.58.71-1.04,0-.81-.64-1.12-.95-1.73,0,.76-.31,1.32-.31,2.06Z"/>
        <path class="st1" d="M343.35,339.96c0-.26-.11-.61.11-.71v-1.1c0-.25-.31-.33-.45-.48-.24-.28-.51-.43-.51-.97-.24,0-.42-.08-.42-.41l.09-.25c-.05-.1-.11-.23-.2-.23h-.18s.04-.1.04-.12c0-.38-.38-.51-.71-.64-.62-.23-.86-.56-1.29-1.04-.22-.26-.38-.56-.71-.69-.09-.02-.2,0-.24-.13-.18-.41-.33-.79-.82-.96h-.73c-.18-.1-.22-.23-.44-.23h-.13v.2c.07.26.42.97.6,1.02.2.05.42,0,.51.23.14.3.2.46.33.76.16.36.67.26.82.84.04.21.2.81.31.89.06.05.33.08.35.13.04.08,0,.23.07.23s.33.51.38.64c.25.58.42,1.04.87,1.55.4.46.8.66,1.22,1.15.02.02.42.69.53.69.16,0,.6-.08.6-.36Z"/>
        <path class="st1" d="M345.41,335.48c0,.12.22,1.04.33,1.07.11.03.24.03.29.15,0,.02-.02.1-.02.13.29.51-.07,1.4.75,1.4.18,0,.29-.16.47-.13.02.1,0,.38.04.38.07,0,.11.13.18.13.27,0,.38-.28.55-.28.38,0,.62.3.98.41,0,.15.07.36.29.36.29,0,.33-.31.69-.41,0-.28.27-.66.27-.87,0-.13-.11-.18-.11-.35,0-.15.22-.54.49-.59,0-.43.18-.58.29-1.14l.11-.25c.07-.03.16-.05.22-.05.24,0,.42.12.49-.26-.4,0-1-1.27-1-1.65,0-.08.09-.15.15-.18-.02-.08-.07-.15-.09-.23,0,0,.6-.28.64-.36-.04,0-.09-.08-.09-.13,0-.23.49-.08.49-.31,0-.51-.93-.2-.93-.74,0-.38.04-.64-.33-.64-.35,0-.84.97-1.02,1.37-.09.2-.6.08-.8.31-.05.05-.07.18-.14.21-.11.05-.09.1-.22.18,0,0-.24.2-.15.31-.18.2-.18.46-.51.53-.24.05-.47.05-.62.23-.31.36-.22,1.15-.91,1.15-.31,0-.78-.18-.78.25Z"/>
        <path class="st1" d="M353.21,335.79c.38,0,.53-.1.85-.1.29,0,.49.17.78.17.44,0,.6-.43.66-.81.07,0,.09-.13.11-.2h-.13c-.27.2-.58.43-.71.59h-.18l-1.55-.31c-.58,0-.84.84-.84,1.45,0,.15-.18.28-.2.38-.16.58-.4.81-.4,1.37,0,.3.31.3.44.33v1.22c0,.15.18.33.35.33.25,0,.33-.89.33-1.01,0-.33-.2-.51-.2-.84,0-.18.18-.31.33-.31.06,0,.11.03.18,0l-.09.54c0,.33.36.46.36.79,0,.08.02.15,0,.23h.29c0-.28.49-.25.49-.53-.09-.03-.31-.3-.31-.46,0-.05.07-.1.09-.15-.13-.08-.55-.99-.55-1.07.62,0,.66-.56,1.17-.74v-.2c-.13-.03-1.31.38-1.33.46l.05-.1c-.09.13-.11.26-.25.26-.33,0-.47-.48-.47-.86,0-.51.35-.41.73-.41Z"/>
        <path class="st1" d="M348.96,342.22c.27,0,.24.18.47.18.05,0,.2-.18.24-.28-.15-.07-.15-.15-.35-.23-.2-.07-.38.13-.53-.05-.05-.05-.05-.23-.18-.23-.4,0-.69-.06-.93-.33.04.02.8-.05.82-.18h-.18l-.67.1c-.4,0-.56-.46-1-.46-.26,0-.33.38-.66.38-.73,0-1.02-.81-1.68-.81-.13,0-.22.15-.35.15-.07,0-.11-.1-.18-.1-.13,0-.53.46-.55.53.33,0,.51.3.73.56.22.26.55,0,.88.13.45.15.8.18,1.22.18.22,0,.29.33.55.33.87,0,1.62.05,2.35.38-.02-.08-.07-.26,0-.26Z"/>
        <path class="st1" d="M353.61,342.55c.29-.1.49-.18.64-.51-.2.1-.31.25-.64.25s-.49-.18-.89-.18c-.16,0-.4-.03-.4.18,0,.28.33.25.49.25h.8Z"/>
        <path class="st1" d="M351.22,342.14c0,.08-.02.13-.02.21-.11-.05-.22-.1-.42-.1s-.38-.03-.38.25c0,.1.27.18.44.18.22,0,.31-.15.53-.25l.18.1h.2s0-.18,0-.38h-.53Z"/>
        <path class="st1" d="M352.48,342.86h-.22c-.16,0-.42-.05-.42.16,0,.25.36.28.58.28,0,.08.02.33.13.33h.09c.07,0,.18-.1.18-.18,0-.3-.33-.23-.33-.59Z"/>
        <path class="st1" d="M350.09,342.12h-.2v.26c0,.08.11.18.18.18.11,0,.2-.1.22-.25-.09-.05-.09-.18-.2-.18Z"/>
        <path class="st1" d="M355.57,342.91c.35,0,1.09-.21,1.31-.59-.2-.15-1.18-.05-1.4.21-.04.05-.04.2-.11.23-.33.13-.75.13-.75.68,0,.11.07.23.16.23.24,0,.62-.3.73-.43.07-.08-.04-.33.07-.33Z"/>
        <path class="st1" d="M361.68,340.36c0-.18-.04-.07-.09-.28-.15.02-.13.25-.13.43,0,.15-.22.17-.22.43,0,.08.06.2.13.2.18,0,.14-.28.14-.54.11,0,.18-.1.18-.25Z"/>
        <path class="st1" d="M356.21,338.43c0,.21.26.48.4.48.07,0,.22-.28.22-.33,0-.25-.62-.46-.62-.16Z"/>
        <path class="st1" d="M357.36,338.43s.31.1.4.1h.51c.31,0,.46.25.77.25.05,0,.13,0,.13-.05,0-.2-.24-.26-.27-.46l-.07.03c-.13,0-.29.08-.33-.1h-1c-.04.05-.16.1-.16.23Z"/>
        <path class="st1" d="M357.27,334.39c-.18.1-.2.31-.2.51,0,.33.18.43.18.71v.33c0,.15.07.48.29.48-.11-.18-.16-.28-.24-.43v-.18c.18,0,.42-.03.51-.05-.02-.2-.18-.25-.18-.38,0-.15.22-.17.22-.33-.38-.1-.53-.3-.58-.66Z"/>
        <path class="st1" d="M370.46,340.09c.06.29.39.26.58.44,0,0,0,0,.01.01.02.02.03.03.05.05l-.04-.05c.1.08.27.17.33.17.46,0,.66-.28,1.06-.38,0-.46.47-.36.47-.89,0-.15-.07-.38-.2-.38-.31,0-.18.56-.49.74-.2.1-.53.08-.87.2,0,0-.2.1-.24.08h-.66Z"/>
        <path class="st1" d="M369.35,340.32c-.53-.31-.51-.99-1.22-1.25-.11-.03-.29-.05-.29-.25-.26,0-.4-.36-.66-.36-.49,0-1.17-.26-1.51-.53v-.03s-.03,0-.04-.01c-.02-.02-.05-.04-.07-.06l.05.06c-.11-.03-.29-.1-.38-.21h-.6c-.13-.08-.31-.38-.58-.48-.07-.03-.24,0-.26-.13-.27.05-.53.51-.73.59-.31.1-.35.13-.53.33-.04.05-.25.43-.4.43-.14,0-.44-.4-.44-.51-.2,0-.33-.1-.33-.23v-.92c-.4-.1-.69-.51-1.06-.51-.4,0-.55.43-.82.43-.13,0-.31.08-.31.23,0,.36.53.2.69.56.02.07.07.2.13.23.11.03.2.08.31.08.24,0,.4-.03.64-.1h.16c-.16.3-.82.25-1.13.43.04.2.29.1.4.3.11.2,0,.31.11.56.02.08.16.08.22.08.18,0,.27-.25.33-.46v.23c.35-.13.49.53.82.53.35,0,.95.13,1.2.25.22.13.84.41.93.71.11.38-.02.74.29,1.09-.13.08-.56.2-.56.51,0,.2.2.2.35.2h.47c0-.13.24-.15.33-.15.58,0,.73.79,1.31.79h.84c0-.18.2-.28.11-.61.31-.18.27-.63.82-.63.73,0,1.13.71,1.57,1.22.04.05.22.1.22.21,0,.28.51.56.84.63h.58c.04.05.38.31.42.31h.13c0-.18.16-.31.29-.41-.06-.03-.4.03-.44-.1-.05-.1-.09-.26-.22-.31-.09-.02-.22.08-.26-.05-.05-.1-.11-.28-.18-.28-.16,0-.42-.13-.49-.25-.18-.3-.13-.48-.36-.74-.04-.05-.42-.48-.42-.61,0-.23.42-.12.42-.41,0-.56-.47-.28-.69-.41Z"/>
        <path class="st1" d="M373.05,338.66c-.24-.28-.44-.58-.86-.74.07.2.22.18.4.31.29.2.25.48.53.63-.05.25-.05.43.22.48.04.05.09,0,.13,0-.02-.05,0-.13,0-.18,0-.35-.24-.3-.42-.51Z"/>
        <path class="st1" d="M374.49,340.01c-.04.26.05.51.31.56v.2c0,.08.07.18.13.18s.16-.13.16-.2-.46-.64-.6-.74Z"/>
        <path class="st1" d="M378.77,343.42c-.02.15.13.53.36.53-.02-.05,0-.1,0-.15,0-.21-.18-.25-.36-.38Z"/>
        <path class="st1" d="M377.8,343.01c0,.3.35.4.62.4.02,0,.09-.05.11-.05-.16-.26-.38-.36-.73-.36Z"/>
        <path class="st1" d="M377.91,342.02c.02.2.42.81.64.81-.11-.38-.33-.61-.64-.81Z"/>
        <path class="st1" d="M376.6,341.49h-.04c0,.28.51.48.69.48.07,0,.13-.03.18-.05-.13-.23-.58-.38-.78-.51l-.04.08Z"/>
        <path class="st1" d="M375.56,340.77l.11.08s-.09.02-.11.02l.33.25h.2c-.13-.23-.29-.15-.53-.35Z"/>
        <path class="st1" d="M369.15,367.6s-1.22-.41-1.22,0c0,.54.73,2.42,1.39,2.42.45,0,1.04-1.34,1.04-1.9,0-.31-.18-.46-.24-.76-.31.1-.69.25-.98.25Z"/>
        <path class="st1" d="M370.26,367.09c.02-.13.07-.18.07-.43-.07.02-.18.02-.29,0,0,.2.02.36.22.43Z"/>
        <path class="st1" d="M362.83,363.35c.2.23.53.18.78,0-.31-.18-.35-.23-.78,0Z"/>
        <path class="st1" d="M359.35,344.71h.22v-.38c-.33-.02-.48.03-.89.13.09.1.4.25.67.25Z"/>
        <path class="st1" d="M373.05,354.61c-.42-.48-1.26-.92-1.26-1.93-.29,0-.64,0-.73-.33-.09-.36-.13-.84-.4-1.14-.38-.43-1.33-.66-1.51-1.27-.18-.64-.35-.96-.55-1.65-.11-.41-.11-1.22-.38-1.42-.09-.05-.51-.21-.73-.28-.24-.2-.13-.66-.22-1.02-.13-.49-.42-.94-.49-1.63-.38.23-.27.56-.62.87v2.29c-.11.58-.25,2.08-.93,2.08-.42,0-.53-.56-.84-.69-.55-.25-.89-.38-1.49-.63-.09-.02-.09-.41-.22-.51-.13-.1-.45-.05-.45-.25l.27-1.27c.18-.15.51-.18.51-.51,0-.2-.31-.46-.44-.46-.24,0-.33.21-.62.21-.8,0-1.24-.36-1.99-.71.05.28.26.35.4.58-.07.02-.24.18-.4.18-.38,0-1.26.23-1.26.58s-.33.54-.33.89c0,.23.07.41-.07.63-.04-.02-.22-.2-.33-.2-.2,0-.38.1-.49.28-.05-.46-.27-.97-.67-.97-.47,0-.58.51-1.17.51-.05.59-.49.69-.49,1.4-.18,0-.29-.1-.47-.2-.11.28,0,.66-.24.84-.09-.18-.22-.28-.33-.51-.22.13-.29.38-.29.64v.43c0,.87-1.81,1.58-2.61,1.73-.42.07-1.22.13-1.48.43-.24.28-.76.91-1.17.97,0-.08,0-.18-.03-.25-.09.05-.24.1-.24.31v1.47c0,.64.27.94.27,1.32,0,.13.06.23,0,.33-.07-.08-.16-.2-.2-.33-.07.13-.09.23-.13.33-.11.38.34.51.44.89.29.99.36,1.35.62,2.47.11.46.45.86.45,1.6,0,.59-.51.76-.51,1.14,0,.36,1.06.89,1.44.89,1,0,1.33-.84,2.11-.84.27,0,.27-.2.62,0,.49,0,.87-.13,1.33-.18.18-1.3,1.57-.84,2.7-1.27.49-.18.64-.58,1.44-.58.73,0,2.04.25,2.39.76.18.28.67,1.53.82,1.53,0,0-.09.46.18.46.47,0,1.02-1.32,1.42-1.78.02.38-.09,1.7-.65,1.83,0,.13.11.25.22.25.33,0,.36-.46.56-.56,0-.08.04-.18.04-.25.09.1.22.2.22.51,0,.26-.09.4-.16.56h.27c.18-.05.29-.08.44-.18,0,.02.02.13.02.13.02.33.31.63.31,1.02,0,1.04,1.42,1.7,2.28,1.7.56,0,.38-.51.89-.56.02.15.93.74,1.11.76.18-1.22,2-.69,2.24-1.86v.05c0-.89.47-1.68.64-2.29.22-.81.62-1.07,1.02-1.78.11-.2.04-.3.15-.51v-.71c.2-.23.33-1.02.33-1.58,0-.76-.22-2.14-.58-2.67l.02-.08Z"/>
        <path class="st1" d="M386.26,367.73c-.11.05-.22.23-.38.23-.13,0-.11-.18-.11-.36-.07,0-.15-.08-.15-.25-.2.1-.53.45-.53.84,0,.05-.02.1-.02.15-.18.02-.31.08-.4.28-.02.07-.02.25-.02.25,0,0-.31.56-.42.61-.38.2-.71.84-1.24.84-.15,0-.27.15-.35.33-.22.38-.89.74-.89,1.4,0,.05.07.1.11.1,0,.13.86.51,1,.51s.4.13.49.13c.24,0,.64-.38.84-.61,0,0,.62-1.47.69-1.78.18,0,.71-.13.82-.13.05-.31-.06-.4,0-.79.36,0,.8-.94.87-1.27-.09-.05-.13-.18-.13-.38-.07,0-.13-.02-.16-.1Z"/>
        <path class="st1" d="M389.1,364.75c-.36,0-.33.25-.75.25-.53,0-.82-.38-.82-1.04h-.13c-.11,0-.2.1-.2.25h-.13c-.11-.13-.38-.69-.38-.81,0-.08.07-.1.09-.18-.13-.08-.13-.25-.27-.4-.22-.26-.6-.28-.84-.71.13.61.44,1.45.95,1.55-.02.08-.07.18-.07.25,0,.2.18.28.24.48v-.02c.03.13.09.34.09.5,0,.38-.05.74-.27.99-.11.13-.31.15-.31.41,0,.46.82.25.82.76,0,.31-.26.43-.26.74,0,.2.13.33.33.33.46,0,.6-.51.82-.89.04-.08.31-.33.31-.51,0-.08-.09-.18-.09-.25,0-.2.22-.28.44-.33.02,0,.04-.08.06-.08l.09.13c.22-.38.13-.92.44-1.27-.04-.08-.11-.15-.18-.15Z"/>
        <path class="st1" d="M389.17,349.29v-.3c-.11-.02-.2-.1-.27-.23-.2.08-.51.15-.51.48,0,.1.29.15.47.15s.17.05.31-.1Z"/>
        <path class="st1" d="M389.28,348.35c0,.07.07.23.13.23.22,0,.29-.25.55-.33v-.23c-.13,0-.69.03-.69.33Z"/>
        <path class="st1" d="M355.83,328.91c-.02.07,0,.37-.07.53-.06.13-.42.04-.43.34-.12.02-.18.13-.19.29-.04,0-.08,0-.12,0-.14,0-.1-.36-.36-.36-.36-.01-.27.48-.7.47-.04.22-.13.35-.13.57,0,.07.08.16.08.22,0,.09-.17.51,0,.51.22,0,.19-.72.4-.94,0,0,.14.18.2.2.02-.02.06-.11.06-.11.04.05.08.11.2.11-.02-.07,0-.13,0-.2h.28c.02.07.06.16.08.23-.06.04-.1.11-.1.26,0,.42.23.78.51.79.06,0,.14.02.2-.02,0,.06.04.18.1.18.14,0,.22-.13.23-.31,0-.24-.24-.31-.23-.47,0-.13.1-.17.19-.31.04.07.1.11.12.18v-.05c.02.12.17.5.24.52,0-.38.25-.5.26-.75,0-.2-.32-1.51-.48-1.69-.08-.09-.18-.2-.32-.2Z"/>
        <path class="st1" d="M351.11,329.79h.14c.25-.17.63-.45.72-.95.16,0,.3-.04.35-.23.1,0,.12-.07.2-.13-.08-.09-.18-.14-.18-.36-.06.06-.06.17-.11.28-.23.48-.92.74-1.13,1.39Z"/>
        <path class="st1" d="M352.23,325.12c0,.13.36.4.44.4.06,0,.1-.09.15-.15h.12s0,.22,0,.22c-.04.05-.12.11-.12.24,0,.11.16.31.3.32.12,0,.21-.13.33-.13.28,0,.3.49.58.5-.06-.18-.12-.27-.01-.42.12.2.6.41.72.68.02.07.04.18.1.18.04,0,.08-.09.08-.13,0-.07,0-.11,0-.18-.14,0-.26-.09-.26-.27-.04.02-.14.04-.14,0,0-.11.1-.13.12-.26-.04,0-.08-.05-.12-.05-.08,0-.11.15-.18.15-.12,0-.18-.51-.42-.52-.12,0-.22.08-.22.17,0,.02,0,.09,0,.11-.22-.11-.49-.67-.49-1,0-.46.37-.5.38-.99,0-.38-.25-.71-.25-1,0-.04-.04-.11-.04-.16,0-.02-.04-.09-.04-.11-.08.04-.15.22-.27.21-.18,0-.14-.4-.36-.41-.16,0-.21.22-.21.44,0,.27.09.45.09.71,0,.2-.05.51-.13.66-.2-.05-.13.42-.13.77Z"/>
        <path class="st1" d="M355.62,327.11c-.16,0-.28-.1-.44-.1-.06,0-.12.07-.18.08.04.18.48.34.47.65,0,.05-.06.13-.1.13-.02,0-.16,0-.26,0v.13c.02.06.16.29.3.29v.13c-.09.13-.05.31.09.31.06,0,.12,0,.18,0v-.13c-.08-.05-.16-.27-.17-.44h.3c.02-.08.06-.15.09-.28-.02,0-.16-.2-.16-.2,0,0,.02-.22,0-.35-.04,0-.08,0-.12,0,.02-.07,0-.15,0-.22Z"/>
        <path class="st1" d="M353.88,327.54s-.06-.07-.09-.07c-.04,0-.13.06-.13.11,0,.2.07.62.07,1,.18-.13.65-.32.66-.7,0-.17-.35-.25-.51-.34Z"/>
        <path class="st1" d="M354.49,328.19c-.1.02-.21.57-.21.64-.06,0-.18.06-.18.13,0,.15.36.58.44.58.04,0,.12-.07.12-.11,0-.13-.1-.09-.1-.29,0-.27.23-.44.24-.7,0-.13-.1-.32-.3-.25Z"/>
        <path class="st1" d="M354.68,329.06h.1c0-.33.27-.44.28-.84-.06,0-.12,0-.18,0,0,.4-.13.57-.19.84Z"/>
        <path class="st1" d="M355.31,328.79c-.06.09-.16.04-.26,0-.07.13-.19.2-.19.33,0,.05.08.11.12.11.18,0,.33-.19.33-.43Z"/>
        <path class="st1" d="M354.88,327.56c0-.29-.26-.36-.32-.56h-.18c0,.09,0,.17,0,.33.1,0,.18-.02.28,0,0,.11.22.34.22.22Z"/>
        <path class="st1" d="M353.27,327.15c.08,0,.19-.26.15-.44-.06-.27-.28-.23-.52-.41h-.2s.45.85.57.85Z"/>
        <path class="st1" d="M353.48,326.45s.16.03.2,0c-.04-.04-.16-.03-.2,0Z"/>
        <path class="st1" d="M353.19,317.25c-.31,0-.78.99-.78,1.52,0,.38-.07.71.33.71.51,0,1-2.24.45-2.24Z"/>
        <path class="st1" d="M346.65,321.57c0-.15-.15-.38-.26-.38-.29,0-1.04.64-1.22.64-.11,0,0,.23,0,.38,0,.33.15.51.49.51s.99-.79.99-1.14Z"/>
        <path class="st1" d="M343.5,337.7c.02.08.11.35.16.35.09,0,.16.15.29.15h.15c-.02-.07-.02-.17-.02-.25-.31,0-.44-.48-.55-.86-.16.02-.47.2-.47.33,0,.2.35.07.44.28Z"/>
        <path class="st1" d="M344.83,338.36c.13,0,.22-.15.25-.31-.07-.02-.13-.13-.2-.13h-.22s0,.1,0,.13c0,.13.04.31.18.31Z"/>
        <path class="st1" d="M339.21,336.8h-.18v.1c0,.18.29.59.4.61.02-.25-.08-.4-.22-.59v-.13Z"/>
        <path class="st1" d="M338.34,335.26l-.11.05h.02c.02.15.31.56.4.56.18,0-.17-.51-.31-.61Z"/>
        <path class="st1" d="M358.47,311.07c0,.13.11.28.22.28.07,0,.15-.1.27-.1-.04-.07,0-.15,0-.23.02.13.04.28.18.33l-.09.35s-.22.36-.22.41c0,.1.13.4.31.4v-.15c0,.08,0,.23.07.23.31,0,.49-.79.56-1.24.07.05.13,0,.2,0-.04-.08,0-.18,0-.26l-.2-.2c-.07,0-.02-.18-.02-.25-.27,0-.4-.2-.58-.2-.06,0-.69.48-.69.64Z"/>
        <path class="st1" d="M360.51,311.27c.29,0,.33-.41.53-.64.07.03.16.18.33.18.22,0,.49-.89,0-.89-.31,0-.38.43-.75.3,0,.03-.42.38-.42.38,0,.12.04.18.18.28-.02.13.02.38.13.38Z"/>
        <path class="st1" d="M362.9,308.17c-.2,0-.33.79-.71.79h-1.37c-.58,0-.78.64-1.24.99-.09.05-.29.1-.29.18,0,.1.16.1.31.1.47,0,.86-.2,1.15-.35.18-.1.31.02.49-.08.06-.03.09-.2.22-.2.27,0,.4.15.67.23,0,.1-.07.28-.07.43,0,.08-.07.2,0,.2.16,0,.13.2.31.25.11-.25.38-.66.53-.66.07,0,.15,0,.22-.02-.02,0-.22-.31-.22-.41,0-.08.07-.2.13-.2.2,0,.18.43.64.43.18,0,.31-.16.44-.31h.22c0,.05.07.13.11.13.09-.35.29-.38.6-.61-.02.18-.11.2-.02.41.26-.1.26-.35.53-.51-.05-.15-.11-.25-.11-.48,0-.33.25-.48.25-.71,0-.28-.07-1.07.15-1.14.07-.03.13.03.2-.05v-.15c0-.33.31-.38.31-.79,0-.36-.31-.53-.31-.89,0-.18.02-.33-.05-.51-.02-.08-.11-.13-.27-.13-.07,0-.02.23.04.23.02,0,.05.02.07.02-.27.25-.24-.08-.29-.08-.29,0-.51.63-.51.94,0,.13.09.13.09.31,0,.81-.75,1.88-1.22,2.06-.27.1-.31.35-.64.35-.04,0-.11-.07-.11-.13,0-.1.05-.2.11-.28-.06.03-.35.64-.38.64Z"/>
        <path class="st1" d="M365.41,302.5c-.04.18-.4.36-.4.64,0,.1.11.15.11.25v.58h.13c.18-.2.36-.1.53-.38-.09-.1-.42-.1-.42-.36,0-.43.38-.18.66-.18,0-.08.09-.18.15-.2.38.28.6.33.95.58.18-.31.33-.89.8-.89.33,0,.49-.08.69-.23-.09-.02-.27-.18-.27-.33,0-.13.09-.18.13-.31-.13-.1-.29.05-.46.05-.86,0-1.13-.81-1.73-1.27-.04.08-.14.15-.14.33,0,.1.11.15.11.25,0,.33-.16,1.32-.53,1.32-.06,0-.16.02-.22,0l.05.05c-.07-.05-.11-.08-.16-.13v.2Z"/>
        <path class="st1" d="M368.6,301.74c-.05.08-.07.23,0,.23.2,0,.46-.38.55-.53l-.07-.07c-.17.02-.39.23-.48.37Z"/>
        <path class="st1" d="M369.04,301.33l.04.03s.02,0,.03,0l-.07-.02Z"/>
        <path class="st1" d="M370.28,300.41c-.27,0-.49.56-.49.56,0,.03-.02.13,0,.13.31,0,.31-.51.82-.51v-.18c-.09.03-.2,0-.33,0Z"/>
        <path class="st1" d="M371.32,300.19c.18,0,.36-.36.38-.51-.05,0-.31,0-.35.15-.02.07.04.2-.02.2-.04,0-.04.15,0,.15Z"/>
        <path class="st1" d="M367.11,293.09c-.09-.33-.27-.66-.27-1.17h-.15v.54c0,.13-.09.18-.09.33-.33.08-.47.76-.47,1.3,0,.38.34.53.34.92v1.5c0,.3-.11.41-.11.79,0,.3.13.35.13.71,0,.38-.09.68-.09,1.14,0,.12-.06.74,0,.74.27,0,.27-.56.53-.56h.22c.02.1.13.28.22.26.02,0,.07-.03.07-.03-.18-.43-.64-.71-.64-1.3,0-.66.07-1.48.67-1.48.2,0,.36.15.47.33-.13-.61-.42-1.12-.6-1.76-.04-.15-.2-.43-.15-.69v-.61c-.15-.36.02-.61-.07-.97Z"/>
        <path class="st1" d="M309.48,272.57s.6-.03.66,0c.37.13.18.54.33.89.04.13.4,0,.55,0,.07,0,.11.15.15.18h1.73s-.05-.08-.07-.12c-.49-.5-1.21-.73-1.21-1.66,0-1.63,1.53-3.33,2.66-3.69.4-.13.51-.69,1.06-.69.27,0,.36-.51.49-.58.73-.41,1.28-.2,2.06-.63.55-.31,2.26-.46,2.26-1.32,0-.28-.62-.64-.89-.64-1.11,0-2.15,1.45-3.33,1.45-.27,0-.4-.31-.66-.31-.42,0-.42.31-.71.31-.82,0-1.44,1.22-2,1.22-.33,0-.55.18-.89.18-.16,0-.22.15-.22.26,0,.15.15.25.15.46,0,.71-1.15,1.09-1.15,1.53,0,.2.31.26.33.56-.35.1-1.06.28-1.06.71v.38c0,.46-.66.41-.66,1.02,0,.3.4.51.4.51Z"/>
        <path class="st1" d="M312.83,273.48s.01.02.02.03c.02.02.05.05.07.07l-.09-.1Z"/>
        <path class="st1" d="M391.98,276.51c-1.75-1.17-4.08-2.42-6.65-2.42-.71,0-1.2.17-1.11.51.68,2.47-1.02-.02-1.44,0l-5.1-.12c-.29-1.32-1.04-1.78-2.55-1.78-.82,0-2.06.36-2.55-.13-.44-.43-.47-1.04-1.11-1.27-1.35-.51-2.81-.89-4.54-.89s-1.97,1.04-2.11,2.03h-3.54c-.62,0-.71-.59-1.44-.64-.07.36-.2,1.15-.55,1.15-.93,0-1.33-1.32-1.33-2.03,0-.18,1.79-1.47-2.77-1.91-.57-.06-.89.23-.89,1.02h-2.44c-.73-.23-4.57-.74-5.05-1.65-2.91,2.72-2.26,1.02-2.26,1.02.69-.99,7.39-3.06,1.88-4.58h-2.33c-.22-.71-.71-1.4-1.66-1.4-1.15,0-1.62.99-2.22,1.53-.44.38-3.31,1.7-3.06.51-.73.25-3.85.5-5.47,2.16-.34.35-.44,1.4-.95,1.4-.73,0-3.48-.31-3.48,1.15,0,.3.25.61.33,1.02-.49.35-.66,0-2.21,0-1.32,2.02-1.2-.31-1.51-.76-.11.81-.58,1.17-1.15,1.52.18.71,1.12,1.45.44,2.29-.47.58.9,2.47.18,2.47-.93,0-1.18-3.84-1.18-4.63,0-.87,1.23-1.22-.66-1.65-.95-.22-2.77,1.58-2.77,2.54,0,1.17.46,1.93,1,2.54,1.23,2.21-1.71-.26-2.81-.58-3.04-.9-2.06.28-2.06.46-.1,1.96-.82.38-1.22.38-.69,0-2.09,1.07-3.1.51-.51-1.5-3.83,1.91-4.65,1.91-.27,0-.65-.22-.55-.51.34-1.03-.15-3.25-1.11.13-.06.22.33.31.33.76,0,.89-1.15.28-1.77.51-.62.23-.32,2.66-2.88,1.4v1.02c-1.26-.13-1.11-1.68-1.55-2.42.95,0,1.47-.03,2.4.24,1.23.37,3.71-1.4-.07-2.79-1.08-.4-3.48-1.78-4.21-1.78-.07,0-.09-.1-.6-.03-.07,0-.53-.08-.73-.1,0-.15-.15-.18-.38-.38.51-.2.69,0,.89-.61-.18-.1-.66-.41-.77-.41-.18,0-.27.18-.33.38-.24-.03-.2-.25-.22-.59-.35.25-.53.36-.84.71-.02-.15-.02-.28-.11-.46-.38.23-.51.81-.95.76.09-.35.47-.46.47-.81,0-.33-.84.3-1.18.3-.2,0-.33-.2-.47-.38-.07.15-.46.25-.46.38,0,.18.15.23.33.31-.4.25-.78.1-1.06.71v-.43c-.46.03-.53.61-.82.68v-.3c-.33.07-.73.05-.95.3.09.1.07.08.17.2-.15.1-.29.05-.44.05-.22,0-.4.2-.51.41.2-.03.2,0,.35.05-.04.03-.29.63-.4.63-.28,0-.37-.25-.73-.25.07-.18.04-.31-.07-.46-.07.08-.13.18-.2.33-.07,0-.11-.07-.18-.07-.17,0-.29.15-.33.41,0,0,.22.08.33.08-.09.05-.33.18-.44.36.53,0,.76-.33,1.31-.46-.11.53-.73,1.4-1.2,1.6-.46.2-.77.56-1.04,1.07,0,.02-.22.58-.22.58-.18,0-.13.79-.4,1.02-.67.61-1.04,1.5-2.02,1.78.2.05.29.1.53.18-.8-.1-.89.51-1.29.64-.49.15-.73.46-1,.89-.13.23-.49.2-.49.59,0,.71.04,1.35.38,1.81-.11.18-.36.48-.36.66q.27-.13.58-.13v.38c-.09.05-.38.18-.38.38,0,.1.87.71,1,.71.93,0,1.64-.97,2.11-1.73.15.24.2.45.44.6-.05.1-.11.24-.11.36,0,.46.33.56.44.94.16.56.11.92.49,1.35,0,.08-.04.18-.04.26,0,.13.31,1.19.49,1.19.55,0,.69-.81,1.06-.81h.6c.07-.48.6-.53.67-1.22-.13-.03-.33-.13-.33-.43,0-.53.18-1.27.62-1.27.22,0,.89-.64.89-1.02,0-.48-.6-.94-1-1.02,0-.18-.07-.36-.17-.46v-.51c.33-.18.11-.66.29-1.02.22-.46.62-.56,1-.81.46-.31,1.49-.81,1.49-1.4.07-.16,0-.28,0-.59,0-.71.6-1.02,1.33-1.02.56,0,1.29.13,1.29.76,0,.43-.53.56-.84.76-.58.38-1.06,1.78-2,1.78.04.18,0,.33,0,.51,0,.28.2.86.42.97-.07.13-.31.3-.31.56,0,.53.49.89.95.89,0,.28.2.33.49.33.38,0,.89-.23,1.33-.38.42.08,1.44,0,1.66-.51.18.28.4.41.55.89-.27.2-.93.56-1.22.56-.38,0-.62-.18-1.11-.18s-1.6.52-1.26.88c1.12,1.2.53,1.66.26,1.66-.44,0-.51-.64-.89-.64-.4,0-.89,1.17-.89,1.78,0,.99-.71.86-.75,1.75-.26.03-.53.06-.8.06,0-.05.04-.18.09-.28-.15-.08-.47-.1-.75-.1-.27,0-.62.38-.82.48-.33.18-.62.1-1,.31-.11.05-.13.23-.38.23,0,0-.38-.3-.38-.36,0-.08.11-.15.13-.28-.51-.07-.93.51-1.53.51-.07,0-.11-.18-.15-.31-.2,0-.29-.1-.53-.1.03-.07,0-.13,0-.28-.13-.02-.24-.2-.24-.45,0-.46.27-.69.49-.94.07-.08.27-.13.27-.25v-.2c-.18,0-.42-.02-.42-.28s.02-.41.13-.66v-.31c-.56.46-1.42.53-1.42,1.6,0,.61.35.81.44,1.5,0,.03.15.51.15.64,0,.2-.36.43-.49.43-.2,0-.4-.15-.55.03-.04.05-.11.25-.18.18-.15.08-.02,0-.31,0-.51,0-.82.41-1.13.76-.02.03-.22.18-.22.28,0,.3.07.61-.11.81-.09.1-.97.51-1.11.56-.11.03-.18.05-.31.05-.13.61-.31,1.17-.98,1.17-.04.2-.2.38-.38.38-.27,0-.49-.12-.66-.33h-.22v.21c.02.08-.04.46.11.51v.18c-.09.03-.33.13-.51.13s-.53-.1-.6-.26c-.22.08-.84.23-.84.46,0,.03,0,.1.02.1,0,.38.98.59,1.33.71.11.02.13.15.27.18,0,.41.13.86.58.86,0,.21.13.15.13.38,0,.1-.04.28-.09.38l.04-.04c0,.15.02.6.02.7,0,.48-.29.63-.29,1.14-.07,0-.4.12-.56.12-.22,0-.35-.18-.62-.1h-1.06c-.11-.02-.29-.05-.38-.15h-1c-.13.05-.25-.1-.33-.1-.13,0-.89.54-.89.69,0,.23.24.59.24.97,0,.66-.2,1.32-.2,1.96,0,.18-.24.25-.24.58,0,.21.18.36.35.36v1.02c0,.08.04.2.18.2.33,0,.58-.18.95-.18.51,0,.53.94.86.94.49,0,.78-.51,1.31-.51.11,0,.49-.13.69-.05v-.02c.44.15.49-.49.75-.64.47-.25.6-.56.89-1.07-.11-.05-.22-.13-.22-.33,0-.56.64-1.6,1.04-1.7.47-.13.95-.31,1.09-.82l-.13-.56c0-.38.35-.64.69-.64.44,0,.75.28,1.24.28s.78-.46,1.2-.69c.2-.1.22-.43.62-.43.84,0,.98,1.04,1.37,1.63.05.18.38.28.53.46.38.43.53.66,1.22.84,0,.15.33.26.42.26.02.15.56.76.62.76.05.23.22.33.22.71,0,.31-.11.69-.38.69,0,.1.09.18.24.18.31,0,.27-.53.46-.76,0,0,.29,0,.29-.13,0-.33-.4-.4-.4-.74,0-.25.22-.41.49-.41.36,0,.49.33.71.38.06-.53-.47-.74-.91-.99-.13-.07-.67-.2-.58-.51.04-.05.04-.12.04-.2-.33,0-.55.13-.89-.05-.18-.1-.33-.51-.42-.86-.07-.23-.24-.66-.58-.79-.27-.1-.47-.25-.47-.64,0-.15.04-.3.09-.46-.05,0-.11-.1-.11-.15,0-.28.49-.28.73-.46.13.15,0,.69.29.69h.66c0,.58.55,1.45,1.04,1.45h.31c0,.35.35.38.67.56.31.18.8.71.8,1.07v.66c0,.53.35.76.62,1.07.2.23.37.46.46.81,0,.05.04.28.13.28h.38c-.07.13-.29.21-.29.38,0,.43.31.84.67.84h.31c-.22-.13,0-.43,0-.58,0-.21-.07-.28-.13-.43v-.21c.11.13.33.33.58.38h.04c.04-.18.27-.08.38-.15-.04-.05-.09-.15-.09-.23-.18,0-.78-.63-.78-.71s.07-.15.09-.3l-.42-.56c0-.13.13-.28.24-.28.2,0,.24.38.58.38.04-.2.04-.35,0-.56.29-.1.38-.33.73-.33.4,0,.6.51.93.51.29,0,.35-.33.64-.48.2-.1.35,0,.55-.08.11-.02.2,0,.29-.1-.13-.23-.73-.58-.73-1.09,0-.36.4-.86.62-1.12v-.66c.07-.15.06.05.14-.36,0-.26.24-.38.46-.43-.02-.13,0-.25-.02-.38.49-.15.53-.81,1.02-.81.4,0,1.42,1.91,1.73,1.91s1.38-.54,1.55-.79c-.04,0-.62-.1-.62-.1-.09,0-.38-.07-.38-.38,0-.2,1.62-.89,2.22-1.14,0,0-.29.38-.4.43.04.15.62.84-.67,1.22.56,1.5,3.1,1.25,3.1,3.25l.09-.02s.02,0,.03,0c-.39.19-.66.59-1.11.59h-1.26c-.25-.02-1.11-.2-1.11-.51-.51,0-.49-.38-1.09-.38-.38,0-1,.03-1.29.23-.24.18-.64.51-.91.51h-.69c-.11,0-.53-.1-.53.13,0,.18.13.1.18.3-.4.23-1.99.08-1.99.86,0,.16.22.13.38.13-.04.13,0,.13,0,.31,0,.48-.24.43-.46.69.31.18.55.15.75.48-.22.25.42.64.55.79-.02.05-.11.13-.18.15h.24c.42-.23.64.46,1.07.46.4,0,.31-.58.77-.58s.64.63,1.11.63c.64,0,.75-.33,1.11-.63.09.1.22.2.44.2.18,0,.24-.15.42-.23v.25s-.15.1-.15.26c0,.3.11.66.11,1.09,0,.59-.44.71-.58,1.22-.13.51-.2.79-.35,1.35-.02.1-.18.1-.18.28l.12.33c-.03-.06-.05-.12-.08-.18-.29.08-.29.2-.62.2-.49,0-.73-.33-1.15-.33-.69,0-.91.38-1.62.38-.78,0-1.78-.38-2.48-.68-.35-.15-.86.05-1.06-.26-.09-.15-.33-.23-.33-.58h-.49l-.07-.05c-.69.25-1.22.25-1.22,1.07v.51c0,.13-.24.38-.44.38-1.64,0-2.15-2.03-3.59-2.03h-.62c-.42,0-1-.56-1-1.19,0-.38.29-.58.29-.97,0-.23-.29-.33-.29-.56,0-.33.31-.28.33-.66-.13.03-.2.15-.33.15-.35,0-.24-.46-.66-.46s-.44.38-.89.38c-.25,0-.38-.18-.67-.18-.33,0-.69.38-.93.38-.18,0-.46-.25-.77-.25-1,0-2.64.71-3.5,1.19-.27.15-.35.46-.82.46-.75,0-1.33-.18-1.88-.64-.22.2-.27.43-.44.69h.05c-.55.79-1.31,1.58-1.89,2.42-.44.64-.11,1.04-.38,1.98-.11.41-.66.92-1,1.15-.4.26-.97.2-1.28.69-.53.84-1.2,2.19-1.49,3.18-.11.41-.62.71-.62,1.22,0,1.01.44,1.73.44,2.85,0,.64-.44,2.01-.93,2.29.16.35.33.48.33.84,0,.23.11.43.11.81h-.07c.11.15.18.2.29.35,0,.1,1.17,1.3,1.33,1.42.55.51.69,1.12,1.11,1.86.47.81,1.75,1.68,2.37,2.21.09.08.4.2.66.2.86,0,1.24-.51,2.11-.51.44,0,1,.38,1.33.38s.44-.33.78-.46c.84-.31,1.66-.89,2.77-.89.91,0,1.06,1.47,1.73,1.47h.93c.75,0,1.15.51,1.4,1.07-.22.2-.22.97-.22,1.27,0,.1-.09.15,0,.38-.16.1-.51.74-.51,1.02,0,1.19,1.26,2.08,1.84,2.93.29.43.2,1.02.38,1.52.22.63.4,1.02.55,2.11.07.56.29.81.29,1.45,0,1.35-1.4,1.78-1.4,3.56,0,1.65.66,2.62,1.29,3.82.18.36.44.48.44.84v.69c0,2.24,1.02,3.74,1.82,5.29.11.23.73.99.73,1.4,0,.28-.11.48-.29.69.18.2.4.76.4,1.27.05-.03.09-.1.22-.13.14.28.33.51.71.51.84,0,1.4-.77,2.33-.77.24,0,.38.25.62.25.2,0,.38-.15.66-.17.07-.46.62-.25,1-.46.91-.51,1.15-1.22,1.71-2.03.35-.51.4-1.1.89-1.65.26-.31.88-.87.88-1.58,0-.23-.13-.41-.33-.53.27-.64.58-.89,1.11-1.2.15-.07.53.02.66-.18.13-.23.18-1.06.18-1.47,0-.76-.62-1.14-.62-1.7,0-.28.36-.71.66-.76.24-1.68,3.17-1.45,3.17-3.43,0-.21-.04-.36-.18-.51,0-.71.07-1.19.07-1.6v-.63c.02-.05.16-.23.16-.38,0-.48-.82-.91-.82-1.78,0-.76-.18-1.12-.18-1.91,0-.72.58-.89.73-1.53.56-2.27,2.13-2.67,3.59-3.99.82-.74,1.11-1.65,1.77-2.67.56-.87,1.55-2.75,1.55-4.2,0-.15-.09-.23-.15-.38-.8.23-1.6.61-2.44.76-.33.05-.55-.13-.89,0-.29.1-.31.43-.67.43-.37,0-.66-.81-.95-1.07.22-.3.01-.37.01-.8-.73,0-.92-1.05-1.27-1.36-.4-.33-.64-.35-1-.76-.4-.46-.16-1.12-.56-1.73-.33-.51-.78-.51-1-1.19v-1.35c-.33-.3-1-1.42-.88-1.96l-2.11-4.27v-.43c.38.43.75,1.58,1.22,1.65.07-.25.31-.9.4-1.27-.05.31-.12.63-.12.81,0,.08.31.48.38.61.24.43.47.82.73,1.27.09.15.24.35.31.61.05.15,0,.53.13.69.07.07.35.02.44.13.07.08.18.23.29.33.09.48.38.61.38,1.2,0,.97.18,1.49.96,1.69,0,.61.61,1.49.88,1.79.24.28.62.51.51,1.07-.05.23-.22.71.03.73,0,.49.16.9.39,1.3.15.25-.03.25.03.28.06.03.63.35.69.35l.14-.1c.47,0,.52-.21.9-.51h.69c.29-.15,1.17-.87,1.44-.94.53-.15,1.22-.33,1.73-.61-.04-.05-.09-.15-.09-.23,0-.56,1.35-.84,1.95-.97,0-.3.42-.74.62-.74.33,0,.31-.74.64-.74.27,0,.24-.43.33-.74.09-.3.31-.41.64-.41,0-.61.64-.81.64-1.4,0-.23-.31-.18-.42-.41v.03c-.15-.1-.18-.54-.42-.61-.64-.23-1.06-.36-1.37-1.09v-.94c-.8.69-.91,1.73-2.39,1.73-.33,0-.91-.18-.91-.53,0-.31.15-.51.15-.81,0-.1,0-.18-.02-.28-.22.05-.18.38-.44.46-.02-.23-.15-.31-.15-.58-.51-.13-1.13-1.22-1.26-1.83-.05-.21-.05-.33-.05-.59,0-.36.13-.81.44-.81.62,0,1.11.79,1.35,1.35.04.1-.02.31.11.46.24.28.6.12.86.43.22.25.4.58.76.71h1.11c.13-.15.22-.38.47-.38.46,0,.46.76.68,1.02.02.03.67.23.78.23.6,0,1.57.31,1.99.31.02,0,.11.02.11,0l.78-.05s.11-.13.2-.18l.58.18c.22,0,.29-.2.56-.2.25,0,.42-.05.67.02.27.1.4.69.58,1.02.22.38.86.89,1.31.89.18,0,.34,0,.51.05-.09.1-.11.33-.29.38-.2.08-.35-.05-.55.1.33.38.6,1.17,1.29,1.17.57,0,.6-.86.89-1.19h.18c0,.1-.13.28-.13.35,0,.33.22.64.22,1.04,0,.32-.1.39-.11.73l-.02-.02c0,.07.03.29.03.36,0,.48.25.97.38,1.47.16.56.56,1.4.67,1.78.09.33.09.48.27.81.18.3.07.63.24,1.04.09.2.4.46.49.81.15.53.4,1.04.57,1.66.02.07.09.25.2.25.02.18.16.28.33.26.18,0,.2-.31.29-.51.11-.25.16-.15.42-.31.18-.1.11-.76.42-.86.07-.02.22-.02.22-.1l.11-.03-.11-.66c0-.48.27-.89.27-1.52,0-.41-.16-.66-.16-1.12,0-.54.47-.61.86-.76.16-.05.4-.36.58-.56.42-.48.82-.99,1.26-1.5.36-.4,1-.53,1.4-.99.2-.23.18-.51.26-.87.07-.23.53-.25.69-.64.18.13.18.25.53.25.58,0,1.2-.15,1.2-.92.33.08.71.23.8.59.09.3.04.71.22,1.02.18.33.42.53.73.81.22.41.49.81.64,1.35.02.13.13.21.13.33,0,.28-.11.43-.11.76s.02.64.35.64c.62,0,.78-.74,1.15-1.17.13.15.07.25.2.41.04.05.22,0,.29.13.22.38-.16,1.14.13,1.14,0,.82.58,1.47.58,2.6,0,.28-.18.86,0,.97h-.11c-.07.36-.11.61-.11.96,0,.05-.04.15,0,.15.2.15.07,0,.29,0,.36,0,.51.91.67,1.27.24.59.29,1.12.49,1.86.25.84.87,1.6,1.55,1.86.13.05.15.23.37.23.07,0,.09-.1.16-.1.09,0,.11,0,.29-.02-.11-.28-.11-.41-.2-.74-.09-.3-.42-.46-.42-.91,0-.23.09-.23.09-.48,0-1.27-1.31-1.42-1.91-2.11-.16-.18-.18-.64-.26-.81h.04c0-.74-.75-.43-.75-1.22,0-.69.64-.89.64-1.65,0-.2-.09-.25-.09-.48,0-.12-.04-.28.13-.28.24,0,.51.05.58.33,0,0,.07.33.11.33.35.13.66.15.97.51.27.31.02.69.51.69,0,.38.44.51.77.51.02.13.07.33.16.38-.09.05-.09.15-.09.35,0,.16.09.51.18.51s.53-.38.53-.64v-.28c0,.08,0,.23.07.23.27,0,.22-.41.49-.56.58-.33.64-.61,1.35-.81,0-.46.27-.69.27-1.27,0-.84-.36-1.96-.89-2.36-.56-.41-.78-1.07-1.29-1.65-.09-.1-.2-.15-.2-.38,0-1.09,1.09-1.27,1.53-2.06.38.21.64.05,1.07.28-.02.13-.09.64.11.64.24,0,.11-.33.29-.53.15-.18.6-.25.78-.36.42-.23.84-.13,1.11-.43,0,0,.22-.48.27-.48.22,0,.33.21.55.21,1.02,0,1.26-.71,1.88-1.12.18-.1.29-.2.33-.46.53,0,.68-.94.89-1.42.13-.31.73-1.32,1.06-1.4,0-.56.33-.81.33-1.55,0-1.09-.22-1.5-.62-2.19-.07-.13-.07-.43-.27-.56l.02-.02h-.05s-.02-.41-.02-.48c-.18-.03-.6-.28-.6-.64,0-.31.38-.33.47-.64.2-.69,1.15-.69,1.59-1.2-.18-.28-.51,0-.82-.23-.15-.1-.24-.3-.49-.3-.18,0-.18.56-.31.56-.18,0-.4.07-.57-.05-.27-.2-.18-.46-.44-.69-.09-.08-.47-.18-.47-.43,0-.53.64-.36.95-.61.27-.23.78-.61.95-.94.05-.08.13-.33.35-.33.18,0,.42.33.42.48,0,.41-.42.59-.42,1.04.62,0,1.13-.76,1.84-.76.27,0,.38.28.71.28-.11.26,0,.26,0,.56,0,.25-.24.23-.24.53,0,.13.07.43.22.43.07,0,.16-.12.31-.12.27,0,.6.2.6.5,0,.18-.18.33-.35.33v.26s.09.15.22.18c0,.15.11.28.11.43,0,.08-.2.41-.2.59,0,.1,0,.23.11.25-.02.13-.13.2-.13.33h.33c.13-.15.18-.15.44-.23,0-.23.56-.25.69-.3.31-.1.44-.38.44-.97,0-.99-.33-1.58-.82-2.14-.2-.23-.42-.46-.38-.89.27,0,.49-.18.66-.38.16-.18.56-.43.64-.63.29-.69.47-1.09,1-1.58h0s.87.26,1.55.26c1.26,0,2.45-3.06,3.34-4.08.35-.41.85-1.23.98-1.9.15-.74-.11-1.21.24-1.92.13-.26.39-.84.39-1.4,0-.69-.96-2.03-1.4-1.64-1.31,1.14-1.99-.61-1.99-.76,0-.71,1.2-1.5,1.66-2.03.69-.79,1.6-2.11,2.55-2.42.84-.25,3.48-.51,4.21-.51.91,0,1.33.51,1.88.51h1.22c.36-1.68,1.02-2.67,2.55-2.67.4,0,.58-.13,1.33,0-.38.33-.54,2.53,1.88-.89.24-.05,1.4.5-.33,1.78-.6.45-1.15.23-1.55.89-.47.76-.89,1.73-1.55,2.16-.56.36-1.33.94-1.33,2.03,0,.94.27,4.02.89,4.58.44-.77.75-2.16,1.66-2.42-.11-.71.89-.86.89-1.4,0-.84.77-1.07.77-1.53,0-.31-.21-.62,0-1.14,1.79-4.4,3.44-2.03,4.1-2.03,1.97,0,3.37-2.89,5.1-2.93,3.29-.07.67-1.5.67-1.91,0-1.1,1.29-.92,1.55-1.53.11-.25-.11-.89.33-.89,1.39,0,2.55,2.16,3.55,2.16.45,0,.53-.94.78-1.27.38-.51.74-.46,1.33-.69-.8-1.22-3.39-1.91-4.66-2.75ZM291.77,293.39h0c0-.08,0-.16-.02-.25,0,.09.02.18.02.25ZM291.02,297.62h0c0,.48.2.56.49.57-.29,0-.49-.09-.49-.57ZM291.42,296.09c.14-.12.46-.24.46-.5,0-.42-.32-.73-.4-1.16.08.43.4.73.4,1.16,0,.27-.32.38-.46.5ZM295.12,278.09c0-.43.4-.64.4-1.07,0-.56-.78-.53-.78-1.02,0,.48.78.46.78,1.02,0,.43-.4.64-.4,1.07,0,.48.44.76.44,1.27,0-.51-.44-.79-.44-1.27ZM298.72,313.88s0-.04,0-.06v.03s0,.02,0,.03ZM308.82,301.99c.42.84,1.02,1.17,1.02,2.16.18-.1.6-.35.75-.38.02.38.38.59.38.97h-.66c-.2,0-.4.25-.44.64.47.07.78.58.78,1.07,0,.28-.16.36-.16.59s.2.51.22.54v.46c-.26.08-.66.15-1.04.15-.29,0-.84.05-1.02-.15-.13-.15-.18-.4-.38-.46-.25-.05-.53.1-.64-.18-.13-.3.07-.51-.11-.81-.11-.2-.29-.18-.29-.43,0-.05-.02-.1,0-.15-.09-.1-.09-.31-.16-.46-.15.03-.13,0-.31.08-.33.13-.31.58-.8.58h0c.49,0,.46-.46.8-.58.18-.08.16-.05.31-.08.07.15.07.36.16.46-.02.05,0,.1,0,.15l.31.05c.27-.41.27-1.02.62-1.22-.6-.38-1.5-1.91-1.5-2.77,0-.26-.49-.64-.49-1.02,0-.12.42-1.07.53-1.22.11.08.78-.36.84-.38.57-.25.93-.43,1.66-.43,1.2,0,1.4.66,1.84,1.42-.33.31-.77.02-1.17.02-.6,0-1.48.66-1.55.64.02.51.38.48.51.76ZM311.43,307.07s.07-.08.16-.12t0,0c-.09.04-.13.08-.16.12ZM312.13,306.81c.15-.03.3-.07.46-.21-.16.14-.31.18-.46.21ZM314.96,310.51h0s.02-.03.02-.04c0,.02-.01.03-.02.04ZM315.69,312.65c0,.07-.01.14-.03.19.02-.05.03-.11.03-.19h0ZM315.58,309.04c-.07,0-.07.13-.11.15-.11.08-.34.61-.45.9.11-.28.33-.82.45-.9-.08-.13-.07-.32-.06-.53,0,.14.02.3.07.46.25-.32.44.12.66.12-.22,0-.33-.2-.55-.2ZM317.8,307.55c.11-.13.24-.22.44-.22h0c-.2,0-.33.09-.44.22ZM319.72,307.81c-.18,0-.24-.28-.42-.28-.13,0-.66.2-.71-.1.05.31.58.1.71.1.18,0,.24.28.42.28h0ZM320.81,307.18s-.04,0-.07,0c.02,0,.04,0,.06,0,.08,0,.15-.11.23-.23-.08.12-.14.23-.23.23ZM322.03,307.89c-.13,0-.19-.08-.22-.21.03.12.1.21.22.21h0ZM322.67,307.64c.15-.1.29-.18.49-.18h0c-.2,0-.35.09-.49.18ZM324.45,307.97c-.33-.13-.53,0-.53-.43-.27-.07-.45-.08-.71-.08.26,0,.44,0,.71.08l.02-.13-.02.13c0,.43.2.31.53.43.08.03.12.08.14.14-.03-.06-.06-.12-.14-.14ZM326.82,312.67c-.09-.03-.31,0-.35-.15.04.15.27.13.36.15.07.02.12.06.17.1-.05-.03-.11-.07-.17-.1ZM326.62,308.6c.2,0,.71.46.71.71,0-.25-.51-.71-.71-.71ZM327.48,300.8c0,2.85-1.4,4.07-3.44,4.07-.36,0-.82,1.14-.89,1.65.06.02.11.03.16.05-.05-.02-.11-.03-.17-.05.07-.51.53-1.65.89-1.65,2.04,0,3.44-1.22,3.44-4.07.34-.05.58-.23.78-.45-.19.22-.44.4-.78.46ZM340.71,294.56c-.45-.23-1.29-.37-1.59-.37.3,0,1.14.14,1.59.37ZM338.45,317.96c0-.94.58-.97.58-1.98,0,1.02-.58,1.04-.58,1.98ZM332.14,315.09h-.93c-.51,0-.71-.38-1.04-.64.33.25.53.64,1.04.64h.93c.2,0,.27-.13.4-.13-.14,0-.2.13-.4.13ZM334.13,295.97c-1.09.74-2.44.76-3.32,1.65-.35.36.35,1.77-1.44,1.53-.28-.04-.45.2-.64.5.19-.31.36-.54.64-.51,1.79.25,1.09-1.17,1.44-1.53.89-.89,2.24-.92,3.32-1.65.04-.02.09-.07.14-.13-.06.06-.11.11-.14.13ZM337.46,296.09c-.93,0-1.86-.76-2.44-.76-.22,0-.44.2-.62.38.18-.18.4-.38.62-.38.58,0,1.51.76,2.44.76.67,0,.9-.58,1.08-1.1-.18.52-.41,1.1-1.08,1.1ZM338.32,322.52c0-.32.07-.58.18-.8-.11.22-.18.48-.18.8ZM338.37,322.78c.09.2.27.25.37.42.16.28.18.81.18,1.12,0,.2-.18.48-.22.53h0c.04-.05.22-.33.22-.53,0-.3-.02-.84-.18-1.12-.1-.17-.29-.22-.37-.42ZM338.92,328.69h0c.04-.09.06-.16.09-.24-.03.08-.06.16-.09.24ZM338.67,325.06c0-.08.02-.15.02-.23h0c0,.08-.02.15-.02.23,0,.28.24.41.4.59-.16-.18-.4-.3-.4-.59ZM339.07,328.28c.08-.24.16-.47.29-.78-.13.31-.2.54-.29.78ZM339.48,327.35s.06-.08.06-.13c0-.08-.05-.33-.12-.6.07.27.12.52.12.6,0,.05-.03.09-.06.13ZM340.34,320.17c.06-.09.13-.19.19-.3-.13,0-.2.05-.35.05-.33,0-.56-.31-.66-.68.1.37.33.68.66.68.15,0,.22-.05.35-.05h0c-.07.11-.13.21-.19.3ZM340.67,319.87c0,.11.03.18.06.22-.03-.04-.06-.11-.06-.22ZM344.06,319.03c-.28,0-.48-.16-.71-.24.23.08.43.24.71.24,0,.22.05.38.13.51-.08-.13-.13-.29-.13-.51ZM346.21,296.86c-1.44,0-1.84-1.27-3.22-1.27,1.38,0,1.78,1.27,3.22,1.27.92,0,2.06-.75,3.24-.83-1.18.08-2.33.84-3.24.84ZM352.56,294.36c.34-.76.84-1.44,1.96-1.44h0c-1.12,0-1.62.68-1.96,1.44ZM358.84,297.11c-.38-.44-1.37-.49-1.66-1.02-.54-.97-.66-2.16-1.39-2.77.73.61.86,1.8,1.39,2.77.29.53,1.29.58,1.66,1.02.08.09.16.24.25.39-.09-.15-.17-.3-.25-.39ZM359.51,301.18s-.06-.05-.06-.08c0,.02.02.05.06.08.23.18.31.41.3.63,0-.23-.07-.46-.3-.63ZM361.84,297.62c-.52,0-.79.25-1.05.46.27-.21.53-.46,1.05-.46h0Z"/>
        <path class="st1" d="M389.61,273.08c.24,0,1.99-.13,1.99-.46,0-.38-.84-.63-1.17-.63-.38,0-1.04.46-1.04.84,0,.13.09.25.22.25Z"/>
        <path class="st1" d="M383.34,274.65c.11,0,.22-.13.22-.25,0-.15-.13-.2-.16-.31h-.73c.13.31.35.56.67.56Z"/>
        <path class="st1" d="M362.24,266.59c.16,0,.19-.19.22-.34h0s0,0,0,0c0-.01,0-.03,0-.04h-.04l-.18-.2c-.09.13-.18.23-.18.38s.07.2.18.2Z"/>
        <path class="st1" d="M347.65,267.86c-.22,0-.49.13-.49.38,0,.23.24.31.49.31.18,0,.32-.07.46-.15.03-.04.05-.09.05-.15,0-.3-.2-.38-.51-.38Z"/>
        <path class="st1" d="M348.16,268.37s-.03.02-.05.03c-.04.06-.09.11-.13.15l.18-.18Z"/>
        <path class="st1" d="M339.34,262.57c0,.26.06.38.33.38l1.17-.38s.69-.13.77-.13c.4.08,1.55-.02,1.55-.63,0-.36-.91-1.02-1.22-1.02-.15,0-.24.2-.4.25.18-.2.07-.2.07-.56h-.29c-.89,0-1.08.94-1.59,1.53-.13.15-.4.15-.4.56Z"/>
        <path class="st1" d="M333.98,259.52c0,.23.31.64.44.64.26,0,1-.05,1.04-.51-.15-.05-.78-.38-.89-.38-.13,0-.6,0-.6.25Z"/>
        <path class="st1" d="M337.01,259.45c-.71.25-.93.53-1.66.81.33.2.91.92,1.18.92.8,0,1.51.46,2.48.46.2,0,.44-.15.44-.38,0-.18-.18-.25-.33-.31.13-.05.44-.07.44-.33s-.04-.31.18-.51c-.29-.33-.29-.51-.73-.51h-.44c-.27,0-.4-.25-.67-.25-.18,0-.24-.08-.46,0,.18-.1.42-.31.42-.46,0-.13.02-.2,0-.51.09.03.04.08.27-.02-.36-.3-.71-.99-1.33-.99-1.06,0-1.39,1.2-2.33,1.5.58.33,1,.54,1.62.54.13,0,.71.05.93.05Z"/>
        <path class="st1" d="M336.97,264.61c.27,0,.4-.15.44-.51h-.33c-.09.08-.2.18-.33.25.02.13.11.25.22.25Z"/>
        <path class="st1" d="M334.31,257.69l-.07-.2h-.82c.13.33.56.25.89.2Z"/>
        <path class="st1" d="M344.33,262.78c.15,0,.27-.2.29-.38-.2.1-.26-.03-.73.08.07.13.18.31.45.31Z"/>
        <path class="st1" d="M308.31,258.89c-.05.05-.11.08-.16.1v.1l.16-.2Z"/>
        <path class="st1" d="M305.98,258.38c.2,0,.31.15.51.23-.11.1-.22.15-.33.23.09.02.2.05.4.05-.18.05-.29.1-.46.2.07.23.29.31.62.31h-.02c.06.1.13.23.24.25.2.02.24-.43.44-.56.3-.2.49.03.77-.1v-.15c.07.02.16.02.22,0,.26-.23.55,0,.6-.46-.13-.05-.4-.25-.67-.25-.33,0-.49.33-.82.33-.42,0-.73-.33-1.29-.33-.46,0-1.51.08-1.71.48.18.03.31.1.49.1.33,0,.75-.33,1-.33Z"/>
        <path class="st1" d="M316.51,258.25c.15,0,1.02-.2,1.17-.33l-.31-.81c-.33,0-1.24.41-1.24.76,0,.25.11.38.38.38Z"/>
        <path class="st1" d="M315.29,258.89l-.11-.3c.2,0,.42.1.55-.13,0-.1.02-.15,0-.38-.2.05-.58.03-.71,0,.04,0,.18-.08.22-.2h-.73s-.02.13,0,.33c-.27.1-.44.3-.44.69,0,.13,1.09.08,1.22,0Z"/>
        <path class="st1" d="M312.96,258.84c-.22,0-1.11.15-1.11.51,0,.1.11.18.22.18.2,0,.29,0,.33-.25.13,0,.31.25.44.25.31,0,.29-.38.73-.38-.11-.18-.33-.3-.62-.3Z"/>
        <path class="st1" d="M312.85,258.33c.24,0,.49.05.66-.1-.49-.23-.64-.28-1.26-.38.22-.25.67-.41,1.02-.66,0-.13.11-.25.2-.33,0-.08-.02-.31-.07-.31-.2,0-.35.2-.38.43-.64,0-.67.51-1.33.51v.33c.22-.15.13-.05.38.05h-.93c-.11.1-.16.15-.29.28.04.02.95.48,1.11.48.27,0,.62-.3.89-.3Z"/>
        <path class="st1" d="M283.93,261.13c.07,0,.11.07.18.1-.09.41.25.61.62.84-.07,0-.11.03-.18.05.11.25.35.4.71.4.47,0,.47-.56.66-.69h.18c.09.08.29.23.33.23h.58c-.24.23-.84.53-1.13.64-.11.03-.62.03-.62.25,0,.61.58.33.84.33.15,0,.86.03.99.13-.27.08-.51,0-.73.2,0,0-.51-.08-.82-.03,0,.86,1.2,1.19,1.73,1.6.31-.35.27-1.07.64-1.4.11-.1.29-.05.34-.2.22-.66.46-1.78,1.22-1.78,0,0,.18.33.53.38-.11,0-.2.02-.31.05.09.2.29.66.44.71-.04.38-.29.25-.33.71.29.03.75,0,1.02.05-.07.13-.07.25-.02.46.56-.2.8-.64,1.4-.86-.2-.33-.84-.13-.84-.92h-.71c.07-.1.04-.25,0-.38-.16.03-.22.05-.4,0,.06,0,.15,0,.22-.03-.22-.3-1.4-1.07-1.77-1.07-.07,0-.15-.03-.22-.03.04-.2.09-.61-.27-.61-.18,0-.22.23-.4.33,0-.18.06-.33.06-.51,0-.25-.6-.51-.89-.51s-.44,0-.44.38c0,.48.13.71.26,1.12-.55-.23-.4-1.12-1-1.12-.2,0-.37.2-.37.43,0,.15.07.28.15.33-.15-.18-.37-.18-.6-.38.07-.13.16-.2.27-.36-.51-.1-.75-.1-1.11-.1-.22,0-.69.48-.77.61.15.18.4.61.55.61Z"/>
        <path class="st1" d="M288.32,259.75c-.05.59.4.28.78.28.04,0,.95.08,1.04.08-.11.05-.36.05-.55.13-.04,0-.29,0-.44.03.02.2.09.33.29.41h1.26c.16.3.38.46.78.46.64,0,1.75-.89,2.28-1.3-.13-.3-.56-.69-1-.69h-.73c-.33,0-.47.26-.67.26-.05-.18,0-.31,0-.64h-.27c-.11.1-.29.59-.55.59-.11,0-.75-.36-.89-.51h-.62l.11.26h-.37v.13c-.14.08-.31.02-.44-.08h-.33c.02.26.16.46.33.61Z"/>
        <path class="st1" d="M284.13,262.52c-.15-.54-.45-.66-.73-1.06-.33.24.3.94.73,1.06Z"/>
        <path class="st1" d="M283.44,261.43s-.02.02-.04.03l.04.04v-.08Z"/>
        <path class="st1" d="M283.37,261.43s.02.02.03.04c0,0,0,0,0,0l-.03-.03Z"/>
        <path class="st1" d="M270.5,294.49c0,.31.29.58.55.58.13,0,.31-.02.42-.1.18-.13.44-.56.8-.56.22,0,.44.02.58-.13.18-.2.02-.51.02-.71v-.86c0-.2.4-.18.4-.38,0-.43-.24-1.04-.75-1.04h-.38c-.22,0-.67.31-.67.48,0,.13.05.18.13.33-.13.15-.51.28-.64.28-.07,0-.24-.05-.24.28,0,.25.2.41.42.53-.09.61-.64.66-.64,1.3Z"/>
        <path class="st1" d="M272.49,288.64c.25,0,.42-.3.42-.58-.18,0-.55.13-.55.28,0,.1.06.3.13.3Z"/>
        <path class="st1" d="M273.2,289.38v.2s-.15.2-.15.33c0,.1.2.18.33.21v.23c-.07.05-.09.1-.09.18v.41h.18c-.04-.1-.11-.18,0-.38.07.05.2.13.38.13-.07.2,0,.26,0,.48,0,.2-.22.33-.22.53s.15.2.35.2c.18,0,.29-.12.51-.12.07,0,.13.02.2.02-.04.1-.16.15-.16.35,0,.26.31.31.53.28v.38c-.11.26-.6.48-1,.48,0,.28.18.41.18.74,0,.38-.62.41-.62.79,0,.05.07.13.11.13.11,0,.09-.13.22-.13.24,0,.33.3.62.3.16,0,.31-.1.4-.25,0,.05.04.13.04.18,0,.35-.44.23-.75.33-.07.02-.73.84-.78.94v.15h.15c.09-.1.15-.2.31-.2h.31c0-.21.13-.43.35-.43.16,0,.25.15.4.15.33,0,.93-.23,1.15-.23h.89c.27,0,.42-.15.62-.38v-.18c-.13,0-.22-.03-.44-.1.18-.33.71-.56.71-1.02,0-.25-.2-.48-.47-.48-.18,0-.13-.03-.29.1l.11-.1c-.09.05-.11.13-.27.18v-.18c.07-.03.11-.1.11-.18,0-.2-.24-.33-.24-.53,0-.61-.58-.79-.93-1.19-.27-.31-.2-.91-.62-1.07-.18-.05-.29.05-.51-.03.02-.1.09-.18.18-.2,0-.54.68-.84.6-1.55h-1.31c-.04-.07-.06-.12-.06-.2.06-.35.55-.3.55-.66,0-.05-.13-.23-.22-.23h-.64c-.13,0-.36.2-.36.33s-.09.23-.09.43c-.15,0-.31.1-.31.31,0,.05.07.13.11.15,0,.05-.04.15-.09.15s-.15-.07-.15-.23h-.35c0,.33.18.41.51.48Z"/>
        <path class="st1" d="M273.95,292.25c-.13.08-.16.18-.16.31h.24c0-.13.02-.23.02-.31h-.11Z"/>
        <path class="st1" d="M268.21,280.6l.04-.05c0-.71-.82-.53-.82-1.27,0-.08.07-.18.13-.23-.2,0-.33.13-.53.13-.22,0-.4-.03-.4-.33-.09.08-.09.05-.24,0-.04.1-.09.18-.09.38-.2-.23-.47.08-.75.08-.2,0-.38-.08-.71-.08,0,.08-.02.18,0,.25-.09-.05-.13-.13-.31-.18l-.53.15c-.13,0-.2-.13-.29-.23-.07.1-.04.15,0,.33-.11.03-.24.15-.4.15s-.36-.33-.33-.51c-.02-.15-.11-.23-.13-.38h-.18c-.18,0-.22.28-.4.28v.2c-.13-.08-.25-.12-.44-.05.04.28.86.56,1.13.56,0,.08.02.15.09.2-.24.1-.82.23-1.15.23.22.26.6,0,.95.1-.05.28-.11.43-.11.76-.07,0-.13.08-.2.13.49,0,.67.36.98.46.6.23,1.17.46,1.99.46.76,0,1.18-.43,1.71-.64.29-.1.82-.56,1-.92Z"/>
        <path class="st1" d="M229.98,321.57c-.16-.07-.27-.43-.51-.51l-.33-.02s0-.13,0-.18c-.51,0-1.06-.28-1.38-.64-.04-.05-.22-.31-.38-.31-.73,0-1.2-.64-2.17-.64s-1.46.43-1.82,1.12h.2c.22-.25.82-.61,1.24-.61.11,0,.22-.03.31.08-.07.07-.09.18.04.28h.64c.31,0,.47.38.78.38.18,0,.29-.08.47.03.09.05.06.23.24.23.07.38.42.36.75.54-.02.12-.11.23-.22.23v.15c.42,0,.78.18,1.29.18.27,0,.69,0,.84-.31Z"/>
        <path class="st1" d="M224.5,320.25v.17c-.07,0-.2.05-.2.23,0,.05.29,0,.31,0,.05-.13.02-.25,0-.38l-.07-.02h-.04Z"/>
        <path class="st1" d="M227.61,322.97c0,.2.18.38.35.38.27,0,.47-.1.73-.15-.02-.1-.07-.18-.2-.23l.04.05c-.13-.05-.44-.2-.71-.2-.09,0-.22.05-.22.15Z"/>
        <path class="st1" d="M234.59,322.92c0,.25.29.28.55.28.13,0,.29,0,.36-.15-.07-.15-.6-.28-.66-.28-.07,0-.25.03-.25.16Z"/>
        <path class="st1" d="M230.02,322.82c0,.15.13.38.27.41,0-.07.02-.13.02-.2.11.08.11,0,.27,0,.27,0,.8-.08,1,.08.11.08.07.33.27.33.24,0,.22-.46.51-.46.11,0,.09.13.22.13.16,0,.24-.1.4-.21h.82c-.16-.25-.38-.36-.6-.56l.11.1c-.4-.23-.53-.66-1.24-.66-.24,0-.38.1-.66.1-.2,0-.33-.18-.53-.18-.07,0-.18.1-.18.18,0,.15.16.28.29.28,0,.2.02.38.15.53-.27.15-.49.02-1,.02-.02.03-.07.1-.11.1Z"/>
        <path class="st1" d="M238.02,329.15c0,.08.13,0,.2,0,.13,0,.22-.23.26-.33v-.18h-.2c-.13,0-.27.25-.27.51Z"/>
        <path class="st1" d="M245.36,336.32c-.27,0-.44.25-.44.64,0,.23.58.69.91.69.27,0,.6-.59.6-.81,0-.05-.07-.23-.16-.23-.11,0-.31.28-.36-.05-.18,0-.33-.13-.46-.23,0,.02-.07,0-.09,0Z"/>
        <path class="st1" d="M230.4,370.5h.2v-.76c.02-.08.09-.13.09-.28,0-.2-.07-.41-.27-.41-.13,0-.27.76-.27.76v.33c0,.1.11.33.24.36Z"/>
        <polygon class="st1" points="199.15 297.54 199.15 297.54 199.15 297.54 199.15 297.54"/>
        <path class="st1" d="M254.51,340.11c-.31-.1-.51.05-.82-.05-.35-.13-1.04-.84-1.24-1.22-.24-.13-.62-.31-1.04-.41l-.84.13c-.44,0-.53-.41-1-.41-.2,0-.29.18-.49.28h-.16c0-.23.02-.4-.04-.63-.04-.21-.24-.15-.42-.28-.29-.2-1.09-.69-1.48-.69-.36,0-.62.53-.84.94-.07.12-.16.3-.24.3-.07,0-.11-.2-.11-.28h-.53c-.04-.25-.16-.46-.38-.59-.11-.05-.31-.02-.31-.28,0-.76.64-1.02,1-1.53,0-.25-.29-.25-.4-.51-.11-.28-.4-1.09-.4-1.4-.38-.11-.84-.94-1.2-.94h-.13v-.05c-.22,0-.58-.21-.73-.28h-.58c-.6-.13-1.53-.05-1.68-.76-.11,0-.29-.05-.33-.16-.27-.63-.46-.56-.89-1.04h-.62c-.09-.33-.02-.71-.31-.81-.33-.13-.8-.2-.95-.56v-.2c.07.05.24.03.33-.05,0,0-.4-.08-.62-.08-.07.05-.53.05-.55.13-.13.31-.35.31-.69.36-.18,0-.44-.05-.44-.28h-1.2c-.13-.03-.27-.21-.27-.46-.33-.08-.83-.22-.92-.63h-.39c0,.3.33.17.42.48h-.53c-.2.15-.55.1-.55.48,0,.31.27.49.27.79,0,.1-.12.41-.21.41-.24,0-.37-.49-.37-.77,0-.23.13-.66.2-1.04.09,0,.22-.1.22-.31,0-.02-.09-.3-.2-.3-.29,0-.35.38-.64.48-.56.2-.91.31-1.44.51-.29.1-.49.18-.6.59-.05.2-.07.54-.2.64-.13.1-.35.18-.35.43-.04,0-.13.08-.13.13v.15c-.15.05-.09.05-.27,0-.03.06-.09.12-.16.17.08-.09.14-.17.15-.2-.35-.3-.63-.81-1.25-.81-.53,0-.82.51-1.4.51-.38,0-.38-.48-.62-.61-.35-.2-.82-.43-.82-.99v-1.55c.13-.26.15-.89.15-1.12v-.38c-.4-.1-.53-.54-1.06-.54-.78,0-1.38.15-2.1.15-.13,0-.27-.1-.27-.28v-.13c.13-.15.4-.25.4-.51v-1.22h.18v.18c.13-.26.27-.43.27-.84,0-.48.38-.94.38-1.3v-.23c-.13,0-.42-.02-.51-.05-.09-.05-.24-.08-.44-.08-.6,0-1.33.25-1.33.99,0,.38-.38.71-.47,1.02-.02.1-.13.41-.31.41-.09,0-.18-.15-.42-.15-.44,0-.8.36-1.22.36-.18,0-.18-.23-.38-.31-.58-.2-.58-.64-.98-1.09-.16-.18-.44-.53-.53-.74-.09-.23.02-.38-.07-.61-.05-.1-.22-.31-.18-.51v-1.42c.07-.38.22-.56.22-1.02,0-.15-.04-.25-.09-.41v-.06s.03,0,.05,0c0-.08-.11-.18-.11-.25,0-.77.29-1.45.78-1.65.22-.1.42.08.6-.13.27-.3.58-.94,1.22-.94.24,0,.38.25.62.25.13,0,.2-.2.33-.2.44,0,.98.86,1.6.51-.27-.2-.07-.43-.05-.81-.13.08-.09.08-.31,0,.38-.15.84-.1,1.2-.2,0,.08.09.2.15.2.18,0,.24-.2.55-.2.53,0,.78.59,1.18.59.2,0,.29-.33.49-.33.97,0,.71,1.55,1.06,2.37.18.41.4.53.66.94.13.23.11.63.44.63.38,0,.49-.48.49-1.02,0-.46-.2-.72-.27-1.02v-.13c0-.82-.62-1.07-.62-1.91,0-1.85,1.33-2.33,2.37-3l-.06-.05c.13-.15.11-.23.38-.33.18-.05.29-.25.55-.31.12-.03.19-.18.26-.28l-.26-.18v-.2c.2,0,.3.02.34-.26-.11-.02-.22-.04-.3-.22.11,0,.29-.11.29-.31v-.25h-.15c-.13-.15,0-.13,0-.38s-.11-.72-.11-.89c0,0-.02-.2.02-.33.05.26.24.66.24.84v.28c0,.06.05.15.09.15.07,0,.51-.89.51-1.04,0-.2-.16-.28-.2-.49l.11-.12s.09.2.16.2c.16,0,.58-.89.62-1.09,0,0-.2-.18-.2-.31,0-.07.06-.15.13-.18.07,0,.13.03.2.03.31,0,.53,0,.84-.13-.16-.13-.36,0-.56,0h-.22c.44-.33,1.2-.18,1.64-.56.09.1.46,0,.73-.08v-.18s-.2.18-.24.18c-.13,0-.22-.33-.22-.46-.07-.03-.09-.15-.09-.23,0-.96.75-1.24,1.11-1.65.22-.13.24,0,.51,0,.31,0,.56-.15.71-.43-.04-.06-.07-.13-.1-.19v-.06s0-.08,0-.08c.04.03.16,0,.22,0,.13,0,.69.1.89-.05.2-.15.2-.48.53-.51,0,.35-.02.38.33.38-.51.05-1.31.46-1.31,1.01,0,.23.31.64.44.64.18,0,.59-.68,1.03-.84.11-.02,1.63-.69,1.63-.9,0-.28-.58-.3-.71-.3-.64,0-1.66-.71-1.66-1.35,0-.15.18-.35.22-.61-.11,0-.36-.07-.55-.07.13-.2.93-.33.93-.84s-.69-.38-1.15-.38c-.97,0-1.42.79-2.08.89.29-.69.75-.46,1.24-1.02.31-.35.09-.58.55-.76.84-.3,1.33-.13,2.17-.13,1.11,0,1.71.42,2.37-.56.32-.47,2.11-.59,2.11-1.4,0-.59-.18-.84-.38-1.22-.18,0,.08-.25-.18-.38v-.31c-.51.33-1.57.76-2.1.76-.07,0-.2-.05-.22-.1.44-.28,1.68-.47,1.81-.96.02-.13-.17-.16-.19-.29-.53.07-1.66-.21-1.66-1.07v-.08c-.49,0-.78-.36-1.06-.61.11-.07.33-.15.33-.46,0-.25-.2-.46-.16-.71-.2-.08-.92-.6-.73-1.07.23-.58-.71-.71-.78-1.4-.07,0-.29-.23-.38-.33-.16.13-.51.36-.51.71,0,.38-.71,1.32-1.26,1.32-.4,0-.47-.56-.73-.56-.38,0-.53-1.25-.6-1.78-.09-.71-1.29-.2-1.29-1.15-.62-.1-.75-.96-1.37-.96-.29,0-.29.25-.62.25-.64,0-1.04-.43-1.66-.43-.33,0-.66.18-.66.63,0,.26.78.63.07,1.14-.28.21.4.77.44,1.15.08.75-.55.94-.84,1.07.51.99,1.28,1.32,1.28,3,0,.46-1.33,1.6-1.77,1.7.77.45.47,1.83.78,2.26-.09.15-.38.33-.4.61-.27,0-.46.5-.67.31-.55-.5-1.33-1.3-1.33-2.03,0-.81.13-1.45-.49-1.91h-1.44c-.82-.69-1.75-1.1-2.73-1.53-.18-.08-.69-.51-1-.51-.33,0-.49.38-.82.38,0-.61-.35-2.03-.84-2.03-.22,0-.33.2-.55.25.09-.31,0-.41,0-1.15,0-1.02.27-1.63.78-2.21.18-.2.55-1.19.73-1.27.38-.15,1.04.1,1.04-.51,0-.38-.85-.41-1.16-.61.2.08-.47-.44,1.33.19.47.16.18-.54.45-.54h.49c.53,0,.82-.63,1.17-.94v-.38c-.75-.2-1.51-.07-1.84-.84h.4c.29.21.58.58,1,.58.35,0,1-.53,1-.84,0-.1-.33-.56-.16-.56.49,0,.67.51.98.51.2,0,.33-.2.73-.2-.11-.15,0-.6.27-.13.15.26,1.29-.86,1.29-1.19,0-.23-.51-.48-.51-.64,0-.18-.3-.58.4-.97.09-.23,0-.2,0-.63-.71,0-.53-.64-1.44-.64-.2-.03-.35-.18-.55-.18-.27,0-.55.21-.55.51,0,.33.33.46.33.69,0,.25-.51.25-.62.51-.18.43-.12.77-.44,1.24-.5.73-1.16-.45-1.16-.73,0-.33.38-.25.38-.63,0-.18-.64-.89-.82-.89-.64,0-.2,1.1-.89,1.1,0-.43-.04-.74-.51-.99.07-.13.11-.2.22-.3-.35-.26-.84,0-1.11-.38.16-.1.56-.28.56-.61,0-.48-.66-.46-.67-.84-.02-.79-.51-1.3-1.37-1.32-.42-.01-.24.31-.22.56-.27.08-.62,0-.62.38,0,.25.18.38.18.63s-.29.23-.29.59c0,.84,1.51.33,1.51,1.19,0,.15-.18.76-.18.76.16-.1.29-.15.47-.25.29,1.04-1.18.53-1.18,1.78-.73.23-.16-.61-.33-.89-.07-.13-.66-.3-1-.3-.4,0-.55.28-.55.82-.38-.05-.62,0-1.88,0-1.2,0-2.59-.48-2.88-1.53-.4.12-1.73.15-1.73.71,0,.18.1.28.28.28.35,0,.94-.2,1.2-.4.09.84-1.04.15-1.04,1.02,0,.18.25.76.13.76-.44,0-.53-.64-.91-.84l-.33-.18h-1.42c-.44,0-.73.21-1.22.23-.88.05-.88-.32-.88-.4,0-.23.68-.13.81-.29-.62-.98-.51-.82-1.77-.71-1.35.12-2.02-1.15-3.37-1.15-.42,0-.6.33-.95.33-.24,0-.49-.48-.53-.69-.42.1-.42.66-.86.66s-1.02-1.14-1.15-1.14c-.44,0-.29.73-.75.73-.18,0-.33-.15-.4-.35-.69.18-.93.23-1.55.51-.24.05-.83.54-1.02.33-.58-.62-.48.17-.69.18-1.44.06-.44.66-.64.66-.55,0-1.55-.13-2.46-.76-.04-.03-.31-.25-.31-.33-.15.1-.04.05-.26,0v11.01h0v-10.99c-.55-.2-.75-.51-1.4-.51-.4,0-.64.18-1.04.18-.69,0-2.06-.13-2.5-.64h-1.71c-.31-.18-.4-.3-.67-.51h-1.11c-.2-.08-.27-.15-.51-.25-.11.2-.33.38-.55.33.07-.13.09-.18.2-.33-.29-.1-.4-.38-.69-.38-.38,0-.6.56-.95.71-.31.13-.51-.05-.82.05-1.17.43-2.17,1.4-2.84,2.42h-1.22c-.02.08-.33.71-.33.71,0,.18.91.38,1.17.56.22.15.49.91.66,1.01.64.36,1.11.41,1.33,1.22-.26.08-.31,0-.62,0-.47,0-.82.23-.82-.58h-.4c-.53.41-1.44.74-1.99,1.12.11.25.31.41.67.41-.02.08-.07.18-.07.25,0,.23.27.33.29.71h1.17c.33-.08.49.18.93.18s.6-.43.95-.43c.13,0,.13-.03.33,0v.38c-.15-.1-.11-.13-.33.02.02.07.38.43.38.61,0,.33-1.51,1.02-1.71,1.02-.47,0-1.66.64-1.66,1.4,0,.41.71.53.89,1.09-.11,0-.22.08-.33.08.16.23,1.2,1.17,1.49,1.17.09,0,.27-.43.44-.43.2,0,.18.31.18.38v.51c0,.2.09.64.22.64.09,0,.2-.2.33-.2h.27c0-.1-.02-.23.02-.38.38.33.53.48,1.07.71.02-.18.09-.26.16-.46.22.08.33.2.6.2.33,0,.49-.18.82-.33h.33c-.53.38-.53,1.14-1.04,1.52-.53.41-1.4.84-1.77,1.4-.27.38-.69.13-1.06.38-.24.15-.44.66-.71.84-.38.26-.8.05-1.06.54.93.3,1.37-.76,2.17-.92.64-.1,1.44-.38,1.77-.76.35-.41,1.11-.66,1.44-1.15.18-.25.27-.51.55-.63.51-.23,1-.43,1-1.02v-.38c0-.84,1.46-2.24,2-2.24h.27c0,.08-.02.18-.02.25-.64.23-.98.66-.98,1.22,0,.13-.09.13.02.31-.04.03-.18.05-.18.2,0,.1.13.18.22.18.51,0,1.93-.92,2.22-1.42-.11-.1-.16-.18-.22-.36.2-.13.64-.25.91-.38.38.89,1.35.99,2.08,1.27h1.22c.66.43,1.42.41,1.99.89.27.23.58.96,1.04.96.18,0,.27-.25.33-.46.18.2.33.38.67.38.09-.18.29.05.4.18-.07.13-.22.23-.22.54,0,.15.24.38.33.38.29,0,.18-.31.6-.33v.33c0,.2-.33.23-.33.43,0,.15.09.38.4.38.4,0,.67,0,.67.38v.38c0,.28.55.76.93.76.11,0,.11-.03.22-.03,0-.18.31-.23.31-.51,0-.49-.31-.64-.52-.83.21.2.52.35.52.83,0,.28-.31.33-.31.51,0,.13.13.21.13.35,0,.33-.09,1.02.22,1.12.18.05.35.05.49.2.2.23-.04.56.22.76,0,0,.58.41.6.48.16.58.2,1.27.95,1.27.11.51.89.18,1.06.84.07.26.62.31.84.56.04.05.16.1.24.15h0c.09.25.29.33.29.58,0,.23-.2.53-.31.69-.11-.23-.31-.43-.64-.43-.09,0-.33.02-.33.18,0,.56.55.79.55,1.35,0,.79-.58,2.23-.38,2.85.21.64-.02,1.58.22,2.14-.13.1-.33.26-.22.48.38.75.87,1.88,1.33,1.96-.11,1.04.51,1.35.82,2.24.07.2,0,.49.18.56.8.35,1.93.89,2.26,1.65h-.04v.18c.16.59.35.74.55,1.2.13.31.12,1.01.38,1.21.39.29.75.83,1.08,1.37.19.32-.33.23-.44.23.22.38.71.3,1.02.66.22.25.4.53.64.81v.66c.07.13.09.13.22.23.24.18.46.78.86.78.02.1.32.54.36.54.07,0,.15-.26.15-.38,0-.2-.26-.63-.44-.43-.4-.31-.53-.97-.71-1.58-.15-.53-.6-.81-.75-1.4-.11-.43-.16-.69-.46-1.04-.22-.26-.51-.26-.67-.64-.18-.43-.4-.76-.4-1.29,0-.08-.02-.23.04-.33.29.33.64.3,1.02.51.18.1.13.66.33.89.2.23.13.66.33.89.24.28.47.56.75.89.07-.07.04-.05.24,0,0,.61.69.66.89,1.12.11.28-.04.54.13.74.22.25.58.36.8.61.49.56,1.24,1.3,1.51,2.21.04.18.22.25.22.59,0,.28-.22.43-.22.71,0,.23.13.51.33.51.07.33.75.51,1.02.81.07.08.11.1.24.18.29.15.44.1.73.25.31.18.38.48.69.58.24.08.4-.08.64.05.22.13.97.74,1.24.74.18,0,.33-.05.51.05.09.05.27.23.44.23.38,0,.44-.51.84-.51.18,0,.31.08.49.2h.13c.6.33.69.91,1.37,1.3.44.25.75.13,1.18.35.29.15.51.43.93.43.16,0,.27-.13.42-.13h.13c.13.61.51.84.86,1.25.11.12.22.18.29.43.11.38-.11.74.22.99h.22c-.04-.05-.04-.15,0-.23.02,0,.77.53.84.68.09.2.09.46.4.54,0,.05.07.15.11.15.16,0,.51-.15.67.03.18.2.4.69.75.69.18,0,.29-.13.33-.38-.05-.02-.18-.13-.18-.23,0-.15.62-.66.78-.66.24,0,.31.33.55.46-.04.1-.13.15-.13.25,0,.08.21.15.25.2,0,0,.03,0,.05-.03-.02.05-.04.1-.04.16,0,.46.4.38.4.92,0,.25-.11.35-.11.66,0,.21.13.36.13.56v.13l-.09.2c0,.08.11.21.22.26-.13.69-.71.51-.95,1.07-.18.41-.33,1.09-.93,1.09.09,1.12-.47,1.02-.47,1.6,0,.35.04.86.36.86.16,0,.13-.12.33.02-.09.41-.49.51-.69.89-.09.1-.24.46-.24.77,0,.46.31.97.55,1.25.09.1.27.05.33.2.07.18.11.53.27.71.07.07.22.03.29.18.2.48.33.81.49,1.4.16.56.6,1.02.78,1.63.09.36.42.56.42.96,0,.3-.09.59.09.79.4.46.71.82,1.33,1.04.31.1.44.2.71.51.25.28.49.23.82.41.4.23.75.61.96,1.22.06.28.18,1.78.18,2.04,0,.41-.2,1.09-.2,1.45v1.12c-.04.26-.16.71-.16.89v.23c0,.86-.51,1.5-.51,2.47,0,.41-.24.76-.11,1.22l.02,1.91c-.13.61-.13,1.04-.29,1.63-.02.1-.13.08-.2.18-.11.18-.15.54-.24.71-.2.36-.51.94-.51,1.53,0,.18.02.89.11.89,0,0,.13.12.13.28,0,.08-.07.15-.22.15-.07.46-.22.66-.22,1.14,0,.28.13.87.31.87.15,0,.18-.2.33-.28.07-.02.13,0,.2,0v.38l-.73,3.76c-.33,0-.18-.46-.58-.46-.11,0-.2.13-.2.28h-.02v.26c.04.28.31.69.31.89,0,.41-.51.59-.51,1.04,0,.43.33,1.32.33,1.88v.36c0,.53.6.43.6,1.05,0,.15-.09.3-.15.43.07.05.11.1.18.13-.02.23-.42.2-.42.43,0,.05.13.18.2.26.29.33.47.68,1.09.68.02.13.07.33.24.33h.42c0,.46.49.46.82.58.36.13.18.82.69.82h.62c.07,0,.16-.1.22-.1h.24c.2,0,.75-.48,1.09-.48.13,0,.27.08.35-.07-.6-.33-1.2-.56-1.68-1.12-.29-.33-.27-1.5-.66-1.75-.13-.02-.33-.33-.33-.59,0-.48.11-.84.38-1.14.2-.23.55-.08.71-.43.13-.33.07-.66.24-.87.31-.35.86-.43.86-1.14,0-.79-1-.44-1-1.43,0-.43.31-.79.66-.89.16-.02.55-.05.6-.33.13-.64.13-1.09.53-1.55-.11-.05-.24-.1-.24-.38.22,0,.31.23.58.23.05,0,.22-.18.22-.33,0-.12-.11-.15-.2-.25-.07.02-.2.18-.31.18-.2,0-.46-.66-.46-1.02,0-.13.07-.3.22-.3.44,0,.53.36,1,.36.15,0,.51-.18.51-.3v-.25c.16-.36-.07-1.12.22-1.45.2-.23.93.05,1.29-.07.53-.2,1-.08,1.37-.51.22-.26.38-.42.58-.78.11-.2.11-.37.11-.68,0-.28-.35-.28-.42-.56-.09-.3-.09-.58-.27-.79-.07-.08-.4-.2-.4-.43,0-.08.11-.13.18-.13.33,0,.62.31.93.31.16,0,.65.28,1.01.28,1.02,0,1.19-1.27,1.63-2.03.38-.66.82-.74,1.22-1.42.18-.33.16-.51.31-.84v.03c.22-.54.44-.97.89-1.22v-1.19c0-.48-.04-.84.24-1.17.18-.2.46-.2.64-.54.4-.71.95-.35,1.48-.96.07-.08.09-.2.22-.28.33-.18.66-.15,1.09-.15.38,0,.84-.36.97-.66.05-.1.02-.41.11-.56.33-.51.44-.76.78-1.35.04-.1.11-.61.11-.86,0-.2.2-.46.29-.59.02-.07.11-.18.11-.3,0-.33.15-.76.15-1.21,0-.61-.33-1.43,0-1.81.22-.25.47-.3.69-.69.13-.23.23-.29.36-.52.6-1.04,1.5-1.54,1.5-3.42,0-.53-.11-1.07-.55-1.22ZM234.12,299.07c.04.09.08.18.1.27-.03-.09-.06-.19-.1-.27-.04-.07-.09-.1-.14-.11.05.01.1.04.14.11ZM232.3,300.65s.05-.07.07-.1c-.02.04-.04.07-.07.1-.04.05-.04.1-.07.14.02-.04.03-.09.07-.14ZM229.79,301.04s.01,0,.02,0c0,0-.01,0-.02,0-.04.04-.15.16-.28.29.13-.14.23-.26.27-.29ZM226.72,302.6c.49-.18,1.53-.48,2.08-.48,0,0,.02-.02.05-.04-.02.02-.04.04-.05.04,0,.96-1.42.71-2.06.71-.11,0-.11.03-.26.03.02.04.05.1.07.16-.04-.08-.12-.13-.12-.21,0-.13.22-.18.29-.2ZM226.7,303.47h0c-.09.05-.21.12-.35.2.14-.08.25-.15.35-.2ZM226.34,303.67c-.51.29-1.25.69-1.71.69-.22,0-.31-.38-.31-.64.07.13.2.31.33.31.2,0,.22-.15.31-.26.2-.23.53-.2.84-.2.29,0,.42.18.53.1ZM217.43,297.87h1.11c.44.51,1.02.51,1.84.51.29-.1.33,0,.58-.13.22-.13.13-.54.35-.54.27,0,.44.46.53.56.04-.1.02-.31.02-.36h.18c.13,0,1.06.86,1.11.97.13.3,0,.56.18.76.51.58,1.2.46,1.75.87h.58c.27.2.6.46.6.84,0,.18-.09.31-.22.31-.27,0-.53-.33-.62-.43-.09.41-.29,1.63-.6,1.63h0c-.22-.2-.22-.38-.31-.79-.22.08-.18.18-.44.18.07-.36.24-.58.24-.94,0-.31-.82-.76-1-.76-.37,0,0,.62-.8.67-.25.02-.24.79-.24,1.11v.81c0,.33-.11,1.09-.45,1.09-.24,0-.51-.23-.51-.51,0-.66.18-1.96.55-2.52-.22,0-.31.21-.53.36.05-.51.93-1.22,1.42-1.22.18,0,.66.13,1,0v-.3c-.47,0-.73-.33-1.26-.33-.24,0-.33.25-.62.25-.16,0-.36-.13-.38-.31h-.44c.09-.21.24-.28.24-.64-.33.08-.73.56-.97.56-.2,0-.22.33-.6.33-.18,0-.24-.02-.33-.25-.15.02-.24.1-.4.18h-.33c.51-.74,1.13-.99,1.73-1.45-.82,0-1.4,0-1.84-.51h-1.11c-.22-.14-.26-.29-.4-.48.14.18.18.34.4.48ZM216.88,297.24h0v.31h0v-.31ZM190.23,287.5c-.19,0-.38-.12-.55-.28.17.16.36.28.55.28.23,0,.29-.3.44-.49-.15.19-.2.49-.44.49ZM191.28,286.73h0c.46.52.76.82,1.09,1.28-.33-.46-.63-.75-1.09-1.28ZM193.14,289.15c-.06-.21-.2-.27-.27-.35.06.08.21.15.27.35.09.31.2.69.44.97.03.03.06.05.1.07-.04-.02-.07-.04-.1-.07-.24-.28-.35-.66-.44-.97ZM193.69,290.19c.11.05.25.06.36.14-.11-.08-.25-.09-.36-.14ZM204.31,311.78h0l2.37.89-2.37-.89ZM208.97,312.37c.75.23,1.17.33,1.55,1.07-.38-.74-.8-.84-1.55-1.07ZM211.51,314.66c.21,0,.28-.18.36-.36-.08.18-.15.36-.36.36ZM212.29,313.95h0c.65,0,.97.46,1.22,1.03-.25-.57-.57-1.03-1.22-1.03Z"/>
        <path class="st1" d="M227.41,317.88c0,.2,0,.48.22.48.04,0,.11-.08.11-.13,0-.18-.07-.33-.24-.36-.02,0-.09-.02-.09,0Z"/>
        <path class="st1" d="M227.38,316.44c-.11,0-.26.1-.31.21.13,0,.35.02.58,0-.05-.08-.11-.21-.27-.21Z"/>
        <path class="st1" d="M228.07,316.74c-.02.07.04.23.11.2l-.11-.2Z"/>
        <path class="st1" d="M230.75,320.78v-.23c-.09.15-.27.28-.44.23v.15s.07,0,.09,0c.11,0,.27-.05.35-.15Z"/>
        <path class="st1" d="M193.27,292.07c.11,0,.18-.08.18-.26,0-.56-.6-.63-.53-1.32-.47-.1-.58-.1-.58.51.27-.2.13-.08.49,0-.07.13,0,.33,0,.51,0,.02.24.56.44.56Z"/>
        <path class="st1" d="M191.68,289.53s-.22.08-.22,0c-.11-.41,0-.41,0-1.07-.31.21-.11,0-.51,0-.09,0-.27.05-.27.26,0,.38.27.71.6.76,0,.41.09.71.35,1.02.22-.25,0-.61.04-.97Z"/>
        <path class="st1" d="M212.18,274.91c.4,0,.49.1.89-.2-.42-.38-2.28-.94-2.28-1.75,0-.66-.6-1.25-.6-2.16,0-.23.49-.46.49-.84s-.38-.56-.78-.56c-.35,0-.66.18-.66.43,0,.08,0,.18.02.25-.36.2-.22,0-.62,0-.18,0-.4.13-.4.33,0,.23.33,1.42.51,1.75-.11.1-.11.2-.29.2-.4,0-.24-.63-.38-.94-.11-.28-.42-.61-.73-.71h-.49c.04.15.09.23.11.46-.25.08-.42.13-.67.18-.16-.46-.38-.76-1-.76-.35,0-.51.33-.69.46-.09-.15-.07-.89-.38-.89-.8,0-2.82.91-2.82,2.16,0,.13.42.51.67.51.29,0,.42-.08.78.03-.24.18-.89-.03-.89.53,0,.71,1.22.46,1.71.46h1.17c.22,0,.4.15.55.26-.27.02-.4.05-.73.05-.93,0-1.62.13-2.15.58.15.3.55.89,1.04.89.31,0,.98-.08,1.22.12.27.23.02.64.4.64h1.99c.47-.38,1.02-.18,1.6-.51.33-.18.18-.46.58-.46.64,0,.95.76,1.82.76.55,0,1.06.02,1.26-.46-.09-.08-.2-.15-.22-.36-.09,0-.33,0-.33-.2,0-.18.11-.25.29-.25Z"/>
        <path class="st1" d="M198.22,272.44c.07.13.22.51.33.51s.18.25.33.25c.18,0,1.71-.64,1.71-.84,0-.59.98-1.65,1.66-1.91.22-.08,1.39-.28,1.39-.56,0-.59-1.09-1.1-1.55-1.1-.29,0-.55.31-.75.08-.49-.05-.71-.36-1.19-.51-.4-.13-.62.18-.89.18-.53,0-.77-.26-1.33,0,.02.28.33.69.33.89,0,.92-1.11,1.63-1.11,2.49,0,.31.89.23,1.06.51Z"/>
        <path class="st1" d="M203.63,265.76s-.03,0-.06,0c-.18,0-.36.13-.44.28.07.05.15.09.23.12-.06,0-.1-.02-.12-.02,0,0-.2-.02-.38,0v.38c.08.04.16.07.25.11-.08-.02-.15-.03-.25-.03-.22,0-.33.2-.55.25.09.18,0,.13,0,.38,0,.21.15.38.33.38.16,0,.49.18.78.18.27,0,.56-.13.93-.18,0-.15.11-.31.24-.33.04.25.24.38.38.59-.29,0-.62-.08-.62.31,0,.15.36.38.62.38.55,0,1-.18,1.44-.38.07-.02,1.48-.38,1.48-.43,0-.08,1.31.1,1.44.05.2-.08.73-.84.73-1.19,0-.31-.24-.64-.51-.64-.29,0-.4.31-.6.31-.42,0-.84-.56-.84-.94,0-.05-.02-.13,0-.33-.15,0-.29-.08-.42-.18-.22.2-.8.41-.8.82,0,.23.4.35.55.38v.33c-.07,0-.2.05-.22.1.09.05.2.07.44.07-.09.23-.2.33-.49.33-.97,0-1.44-.97-2.11-.97h-.51c-.02-.31-.29-.38-.38-.38-.2,0-.33-.08-.73,0,0,.13.07.21.17.26ZM204.24,266.31c-.07,0-.2-.03-.34-.06.11.01.22.03.34.06Z"/>
        <path class="st1" d="M201.21,266.72c0,.18.2.31.38.31.29,0,.62-.54.67-.89-.22-.02-1.04.18-1.04.59Z"/>
        <path class="st1" d="M204.31,265.19h.49v-.33h-.78c0,.23.18.33.29.33Z"/>
        <path class="st1" d="M199.59,266.13c.22,0,.35.15.62,0,.04.1.2.38.38.38.24,0,.42-.28.47-.56.38.05.71-.35.75-.79.2.13.18.71.55.71l.95-.82c0-.2-.15-.25-.18-.51.15-.05.29-.23.29-.41,0-.46-1.33-.05-1.33-.05-.2-.03-.22-.05-.4-.05-.62,0-.73.66-1.15.94-.38.25-.71.3-1.06.51-.09.05-.49.41-.49.46,0,.08.18.2.22.38.18-.02.24-.2.38-.2Z"/>
        <path class="st1" d="M205.91,262.78h.95c.27,0,.42-.15.6-.25-.09-.33-.46-.64-.93-.64-.29,0-1.62.56-1.62.89.18-.03.27-.2.44-.2.22,0,.29.2.55.2Z"/>
        <path class="st1" d="M206.79,262.91c-.46,0-1.82.05-1.82.64,0,.23.38.68.71.68.49,0,1.22-.23,1.18-.76h-.62c.33,0,.71-.08.95-.31-.07-.1-.15-.25-.4-.25Z"/>
        <path class="st1" d="M204.35,263.72c.16,0,.22-.15.31-.3-.13-.08-.75-.71-.75-.08,0,.13.24.38.44.38Z"/>
        <path class="st1" d="M215.37,271.04c0-.25.07-.03.07-.38,0-.28-.64-.05-.82-.03.16-.23.71-.43.71-.94,0-.13-.16-.26-.22-.26h-.89c-.49,0-.98-.1-1.33.31-.02.08-.16.13-.16.2,0,.33.42.28.71.33v.69h-.33c-.38,0-.71-.3-1-.3v.43c.64.74,1.33.64,1.95,1.35.13.15.18.43.49.43.2,0,.24-.31.44-.38.71-.31.78.07.89-1.32-.13-.05-.42-.1-.51-.13Z"/>
        <path class="st1" d="M211,265.24h-.27c0,.13.03.22.08.3l-.03-.05v.46c.18.15.33.33.55.26l.07.25h.33c0,.15.11.31.27.31.44,0,1.22-.26,1.62-.26.09,0,.2.03.27.08-.13.15-.55.15-.55.38-.02.08-.02.18,0,.25-.09.05-.15.15-.15.25,0,.23.58.13.71.13.07,0,.55,0,.89-.13-.09-.71.18-1.02.18-1.6,0-.38-.05-.64-.44-.64-.18,0-.27.2-.44.2-.42,0-.64-.25-1-.25-.16,0-.25-.05-.4.02.09.36.4.36.78.36v.56c-.55,0-.73-.56-1.22-.56v.31c.09.13.27.3.44.43-.69.23-1.02-1.07-1.66-1.07Z"/>
        <path class="st1" d="M214.44,275.67c-.09.02-.49-.08-.49.13,0,.08,1.64.76,1.93.76.24,0,.33-.25.55-.41-.13-.36-1.04-1.3-1.37-1.3-.44,0-.36.71-.62.82Z"/>
        <path class="st1" d="M217.43,268.88c-.46,0-.6.35-.6.38,0,.08-.04.23,0,.25h-.51v.43c.15.51,0,.81.35,1.22-.02.13-.02.43-.02.76h.44c.27-.3.45-.38.51-.84h-.29c.13-.51.13-.18.62-.18.67,0,.97-.56,1.26-1.02,0,0,.4-.33.4-.38,0-.13-.02-.2,0-.33-.8,0-1.42-.3-2.17-.3Z"/>
        <path class="st1" d="M210.45,264.48c.15,0,.29-.13.31-.3-.46-.18-.51-.71-1.09-.71,0,.33.53,1.02.78,1.02Z"/>
        <path class="st1" d="M210.34,267.58c.18-.02.22.03.44.03.13,0,.33-.03.33-.33,0-.18-.11-.25-.16-.38-.31.13-.53.26-.62.69Z"/>
        <path class="st1" d="M210.34,261.51c-.02.1-.09.2-.16.25.18.15.29,0,.78,0-.04.08-.04.23,0,.31-.27.1-.47.08-.66.31.2.23.29.2.6.2.33,0,.62-.13.73.1.4-.05.64.1,1.04.1.51,0,.47.64,1,.64.18,0,.4-.08.4-.33,0-.28-.44-.48-.62-.69.04-.08.13-.18.18-.25-.11-.13-.36-.59-.67-.59-.13,0-.2.2-.33.2-.24,0-.22-.59-.67-.59-.18,0-.26.2-.44.2-.27,0-.38-.46-.84-.46-.27,0-.44.15-.71.2,0,.3.07.38.38.38Z"/>
        <path class="st1" d="M212.18,263.08c-.09,0-.6.38-.2.38.33,0,.6,0,.71-.18-.2-.08-.27-.2-.51-.2Z"/>
        <path class="st1" d="M220.49,267.99h.26c-.04.43.64.51,1.11.38h1.77c.2-.15.24-.28.55-.33.04.18.15.38.44.38.78,0,1.77,0,1.84-.89,0,0-.13.03-.29-.02.02-.1.07-.17.11-.24.06,0,.14-.02.18-.05-.31-.66-.89-.71-1.77-.71-1.15,0-1.55.64-2.77.64-.55,0-1-.15-1.53-.3-.09.07-.35.23-.35-.13,0-.08.11-.08.16-.13-.31-.28-.86.1-1-.58h.89c-.2-.33-1.22-.18-1.04-.76h-.4c-.09.15-.22.2-.44.2-.75,0-.93-.89-1.93-.89-.26,0-.66,0-.66.38,0,.23,1.35.89,1.6.89.18,0,.31-.1.44-.25.38.43.49.84.89,1.3-.09.05-.27.23-.27.41,0,.51,1.11,1.14,1.6,1.14.2,0,.53-.3.62-.43Z"/>
        <path class="st1" d="M217.65,267.48c0-.33-.53-.84-.93-.84-.51,0-.42.58-.66.58-.04,0-.29.13-.29.38,0,0,1.28.69,1.44.69.31,0,.44-.38.44-.81Z"/>
        <path class="st1" d="M217.72,263.79v-.33c-.22.05-.04,0-.29,0-.42,0-1.22.05-1.44.31,0,0,1.28.28,1.39.28.2,0,.33-.13.33-.25Z"/>
        <path class="st1" d="M215.39,262.91c-.07.03-.22.13-.22.25,0,.31.78.2,1.55,0-.07-.28,0-.46,0-.64,0-.54-.78.03-.78-.59-.24,0-.71-.18-.78-.38-.22.03-.51.13-.51.38,0,.51.46.66.73.97Z"/>
        <path class="st1" d="M214.28,260.36h.38v-.51c-.16,0-.49-.03-.78,0,0,.3.27.35.4.51Z"/>
        <path class="st1" d="M217.1,259.86c-.2,0-.55-.15-.66-.25h-.33c.06.74.53.81,1.28.81-.13.2-.29.23-.51.33,0,.15.02.25.18.25.18,0,.24-.1.47-.2.07.15.09.33.31.33.27,0,.33-.2.66-.2s.58.1.91.2c-.31.07-1.68.03-1.68.51,0,.38.62.64,1,.64-.07.08-.13.15-.29.18.04.36.53.46.89.46.33,0,.53-.13.53-.58.2.15.6.48.8.46v-.33h.4c-.07-.2-.16-.25-.29-.51.11-.13.16-.25.27-.38.07.28.07.51.35.51s.6-.76,1.04-.81c.18-.03.42.02.51-.13.07-.1.02-.2.02-.38-.29-.03-.86-.33-1.09-.33-.05,0-.38.23-.38,0,0-.15.16-.2.16-.38s-.27-.2-.27-.38c0-.3.02-.43-.29-.43h-.22l.11.18v.33h-.27c-.2-.23-.07-.56-.4-.71-.33-.15-.55.1-.89-.05-.36-.15-.27-.89-.71-1.09-.4-.18-.84-.23-1.4-.28.02.36.4.38.66.53h-.38c-.4-.1-.58.05-.84.23,0,.03.2.41.29.41.13,0,.4-.15.62,0-.07.08-.11.25-.24.25-.18,0-.29-.18-.6-.18-.2,0-.51-.03-.51.25s.69.46.97.56c0,0-.11.21-.2.21Z"/>
        <path class="st1" d="M225.19,281.72c-.11-.1-.04-.28-.15-.46-.4-.61-1.11-.36-1.57-1.02-.07.05-.13.1-.2.21-.11-.25-.22-.33-.33-.71-.62.08-.73,1.09-.73,1.53v.38c0,.15-.11.23-.22.33-.05.13-.31.08-.33.51.18-.02.6-.1.95,0-.04.25-.11.51.15.51.11,0,.11-.08.18-.2.31.15,1.04-.38,1.04-.94.13.05.84.64.84.64h.6c.29,0,.49-.1.73-.28-.2-.31-.6-.18-.95-.48Z"/>
        <path class="st1" d="M229.4,277.53c0-.84-1.37-1.02-1.37,0,0,.3.22.56.55.56.27,0,.82-.23.82-.56Z"/>
        <path class="st1" d="M224.41,283.17c-.02.15-.31.38-.49.63v.33c.36-.05.91-.56,1.11-.86-.27-.13-.18-.13-.62-.1Z"/>
        <path class="st1" d="M226.81,270.92c.38,0,.57-.25.82-.25s.38.18.67.18c.2,0,.33-.18.4-.41-.4-.23-.91-.79-1.51-.79-.47,0-.62-.2-1.11-.2-.18,0-.38.13-.38.38,0,.28.24.41.44.53-.16.43.22.56.67.56Z"/>
        <path class="st1" d="M226.3,284.65c.22,0,.27-.36.4-.56-.22-.3-.73-.28-.73.18,0,0,.29.38.33.38Z"/>
        <path class="st1" d="M230.35,277.35c-.07-.1-.24-.41-.44-.41-.05,0-.29.18-.29.26,0,.15.13.2.29.2.22,0,.16.03.44-.05Z"/>
        <path class="st1" d="M227.25,275.47c-.26,0-.77.58-.51.58s.45-.28.51-.58Z"/>
        <path class="st1" d="M232.02,273.13c.07-.43-.49-.51-.73-.51h-.56c-.73,0-.89-.87-1.37-1.27-.29-.23-1.24-.38-1.66-.38-.4,0-.51.63-.89.63-.2,0-.27-.25-.51-.25-.22,0-.31.25-.44.25-.11,0,0-.41,0-.51,0-.56-.31-1.45-.89-1.45-.89,0-2.37.31-2.37,1.27,0,.25.22.43.22.69,0,.2-.31.51-.44.51-.27,0-.22-.23-.22-.43,0,0-.04-.28,0-.46-.11,0-.18-.1-.18-.25,0-.74.73-.79.95-1.32-.02,0-.73-.25-.73-.25-.75,0-1.33.43-1.77.94-.09.1.02.56-.16.71-.33.28-.44.43-.44,1.14,0,.23.33.69.33.69,0,0,1.02.1,1.22.25v.33c-.38-.05-.71-.2-1-.08.04.36.38.41.49.76h1.06c.13.2.49.51.66.51,1,0,2.68-.08,3.37,0-.02.18-.11.58.18.58.4,0,.75-.97,1.04-.97.24,0,1.44,1.17,1.64,1.4-.13.02-.53.08-.53.33,0,.05.09.3.18.3.29,0,.42-.3.71-.3.47,0,1.88,1.25,1.88,1.91,0,.35-.47.91-.66,1.14-.16.18-.55-.05-.55.38,0,.2.29.46.4.53-.27.2-.8.36-1,.36h-.95c-.31,0-.89.43-.89.69,0,.35.71.71.95.71.27,0,.4-.38.67-.38.2,0,.15.18.38.18.2,0,.33-.2.44-.38.64.43,1,.92,1.73,1.27-.38.81.95.79,1.49,1.14.55.38.97.23,1.62.58.07.03.11.31.22.31.09,0,.22-.13.22-.31,0-.71-1.24-1.24-1.62-1.78h.33c.24.36,1.66.96,2.06,1.02.09-.28.33-.76.33-1.02,0-.28-.4-.41-.4-.58q-.02-.1,0-.51h-.38c-.04-.43-.2-.13-.62-.31-.18-.08-.44-.64-.49-.97h-.29v-.38c.09.08.2.05.33,0v-.31c-.2.05-.24.08-.44-.05.02,0,.31-.28.44-.28,1.06,0,1.11,1.73,2.22,1.73.24,0,.29-.43.29-.71.42,0,.49-.23.49-.3,0-.13.02-.05,0-.33.29,0,.66-.1.66-.43,0-.41-.18-.59-.6-.59-.11,0-.29,0-.4-.13-.18-.48-.29-.13-.78-.13-.33,0-.44-.43-.49-.89-.47-.05-1.06-.3-1.11-.89-.29,0-.42-.08-.62-.2.2-.38.38-.38.73-.59-.06-.15-.22-.23-.33-.23-.2,0-.29,0-.66-.05.18-.31.47-.28.78-.36-.13-.36-.31-.61-.62-.61h-.38v-.43c-.62-.08-.95-.48-1.55-.71Z"/>
        <path class="st1" d="M227.3,282.72c.22.2.29.2.51,0-.27-.15-.29-.33-.51,0Z"/>
        <path class="st1" d="M223.59,279.61c-.02.18.15.38.44.41-.15-.23-.15-.56-.44-.41Z"/>
        <path class="st1" d="M219.54,257.06h.66c-.27.1-.4.18-.62.43.04.03.29.2.4.2.42,0,.44-.46.89-.46.18,0,.24,0,.44.05-.58.2-1.13.13-1.38.79.18-.03.62,0,1.04,0-.29.03-.44.15-.6.28.16.23.78.53,1.22.53.2,0,.33-.13.49-.25h.29c-.13.33.44.51.89.51.18,0,.26-.25.44-.25.22,0,.36.2.78.2.71,0,1.22-.18,1.66-.58h.33c-.27.38-.64.51-1.06.71h-1.11c-.04.08-.16.15-.16.25,0,.15.71.66.82.79-.62.08-.82-.66-1.37-.86-.44-.15-.93-.05-1.18-.05-.11,0-.22-.05-.33,0,.05.2.09.3.33.3-.22,0-.55-.05-.55.2,0,.46,1.51.46,1.51,1.27,0,.71-.67.48-1.22.69-.33.13-.49.41-.67.84v.3h.33q.09-.1.22-.18h.33c0,.61.69.92,1,1.27h-.4c-.42-.28-.67-.71-1.37-.71-.22,0-.56-.1-.56.26,0,.46.47.53.73.76-.47.38-1.62,0-1.62,1.02,0,.07.07.2.22.2.11,0,.2-.13.27-.25.78.28,1.37.51,2.1.51.33,0,.47-.25.66-.25h1.66c.44,0,.22.38.73.38s1.77-.46,1.77-.89c0-.23-.27-.2-.33-.2h-.55c0-.87.93-.38.93-1.2,0-.15-.11-.2-.16-.38h1.11c.38-.3.53-.91,1-1.17-.13-.36-.38-.46-.64-.61.42.05.69.1.64-.46h-.62c.36-.33.91-.38,1.4-.56.35-.13.84.18,1.15-.08.67-.56,1.18-1.57,2.06-1.91.8-.31,2.04-.66,2.55-1.25-.56-.03-1.44.18-1.66-.08,1.17-.66,2.26-.2,3.15-.97.16-.13.55-.05.55-.38,0-.46-1.18-.33-1.44-.64-.13-.15-.13-.36-.38-.43-.15-.05-.24-.1-.4-.2l-1.77.58c.18-.05.24-.1.4-.28-.44-.51-2.35-.43-2.88-.43h-.62c-.2,0-.33-.18-.66-.18-.31,0-.4.43-.71.43-.33,0-.44-.3-.84-.3-.11,0-.22.08-.27.18h-2.55c-.22,0-.4.08-.51.33-.29.28-.07.05-.44.05-.64,0-.91.54-1.11,1.14-.2-.08-1.07-.56-1.49-.56-.47,0-.18.56-.89.56,0,.1-.09.2-.18.2h-.49c-.64,0-2.08.3-2.22.94h.49c.07-.05.2-.13.33-.18Z"/>
        <path class="st1" d="M262.83,274.3c-.47-.18-2.44-.07-2.44-.84.11-.03.49-.1.49-.33,0-.2-.22-.28-.22-.64.11.08.22,0,.33,0,.91,0,.69,1.27,1.73,1.27.24,0,.6-.02.6-.3,0-1.45-1.42-1.88-2.22-2.8v-.38s.11.03.29,0c.13.48.82,1.15,1.22,1.15.26,0,.33-.41.33-.71,0-.69-1-.46-1.22-1.14h.33c.18.28.42.41.67.59.18-.53,1.06-.2,1.22-.97-.11-.05-.22-.21-.22-.38.42-.05.86-.28,1-.68-.27-.1-.89-.08-.89-.51,0-.33.36-.33.71-.33-.11-.15,0-.36,0-.56,0-.38-.33-.53-.33-1.09-.31,0-.71,0-.71-.43,0-.18.2-.38.44-.38.4,0,1.55.23,1.55-.38s-.87-.48-.95-.89c.13,0,.29-.08.4-.15-.22-.2-.53-.48-.89-.48-.24,0-.42.13-.66,0,.13-.25.11-.86.38-1.09.42-.36.89-.53.89-1.07,0-.1.02-.1,0-.38.42-.13,1-.23,1-.64,0-.25.16.03,0-.33.4-.1,1-.1,1-.81-.18.15-.2.15-.46,0,1,0,1.46-.74,2.19-1.02.13-.05.55-.28.55-.59,0-.33-1.04-.89-1.33-.89-.22,0-.38.02-.44.33h-1.06c-.36.2-.42.33-.82.51-.09.03-.51-.07-.51-.07h-1.49c-.36.31-1.48,1.98-2.05,2.16.07-.25,1.5-1.98,1.5-2.21,0-.38-.16-.76-.55-.76-.73,0-2.05,1.45-2.61,1.45-.18,0,.79-1.07.83-1.27-.4-.18-4.11.33-4.49,0l4.87-.3c.6-.26,2.11-.13,2.22-1.02-.56-.15-1.33.03-1.93-.25-1.04-.51-2.02-1.48-3.32-1.48h-3.22c-1.13,0-1.99.71-3.06.71-.33,0-.55-.05-.89,0v.3h-.44c-.49-.2-.84-.18-1.37-.18-.73,0-1.29.18-1.89.51.11.18.29.21.44.38-.2.05-.89-.07-.89.3,0,.48.91.82,1.26,1.02h-1c-.55-.3-1.09-.89-1.99-.89-.22,0-.55.03-.55.33,0,.2.11.36.18.56h-.33c-.44-.2-.82-.15-1.06-.63l-.22.25c0,.18.11.33.11.51-.42,0-.53-.76-.93-.76-.6,0-1.04.41-1.66.58-.84,0-1.17.25-2.06.38-.71.1-.11,1.27-.89,1.27-.22,0-.4-.05-.58-.21-.44.51-1.44,1.12-2.19,1.4-.11.03-.44.15-.44.38,0,.48,1.26.46,1.66.51,0,.63-.24,1.09-.6,1.35-.49.33-1.29-.05-1.88.18-.42.15-.67.43-1.07.59-.49.18-1.26-.1-1.26.69,0,.41,2.13,1.09,2.22,1.09h.78c.11,0,.18-.13.22-.25h.89c-.07.28-.07.38-.29.56h-1.26c-.11.18-.18.2-.4.2h-.55c-.18,0-.62.15-.67.51.42.18.29,0,.78,0,.27,0,.53.28.89.43-.09.23-.24.26-.44.41.26.38.97.61,1.44.61.18,0,.15.08.29-.07-.07-.03-.15-.13-.22-.21.11-.05.2-.1.44-.1.26,0,.47.2.66.2.29,0,.42-.33.71-.33h.66c2.48,0,4.03,2.21,4.65,4.4v.38c.2.03.55.05.55.43,0,.58-.49.53-.49,1.09,0,.38.2.43.6.43.29,0,.35-.43.55-.43.73,0,.93,1.19,1.62,1.45-.02.16,0,.38-.22.38-.53,0-.87-.38-1.33-.38-.2,0-.18-.1-.4,0,.09.71,1.71.84,2.39,1.09-.2.71-.53.97-.66,1.73-.31-.15-.31-.13-.62.05v.05c-.44.41-.58.91-.89,1.4v.59c.13-.13.29-.1.44,0-.07.25-.22.38-.22.63,0,.69.6.97.73,1.45.07.25.13.74.22.84.38.23.49-.41.82.08-.15.18-.33.15-.33.48,0,.74.84,1.88,1.29,2.29.07.05.02.41.15.51.36.3.58.13.73.71.27-.03.62-.33.93-.33.56,0,.51,1.15,1.07,1.15.13,0,.18-.15.44-.18.04.15.11.26.27.26.6,0,.33-1.32.84-1.6-.05-.28,0-.94,0-1.4,0-.74,1.04-.46,1.04-1.32,0-.28-.27-.41-.27-.58,0-.13.09-.21.15-.31,0-.08-.04-.18-.04-.25,0-.84,1.2-.61,1.66-1.14.2-.23.11-.48.44-.64v.51h.33c.47-.38,1.22-.26,1.66-.76.33-.38.36-.89.78-1.27l.56-.46c0-.2.22-.28.44-.43h1.04c.84-.41,1.49-.33,2.28-.64.64-.23.86-.94,1.59-1.22.4-.15.62-.18.95-.48Z"/>
        <path class="st1" d="M242.66,275.42h.49c.38,0,.84-.08.89-.51-.58-.2-.75-.89-1.33-.89-.2,0-.49.13-.49.51,0,.3.24.86.44.89Z"/>
        <path class="st1" d="M265.09,266.9c-.07.08-.22.18-.22.33,0,.13.13.38.29.38.22,0,.6-.31.71-.38h-.38v-.33h-.4Z"/>
        <path class="st1" d="M241.73,295.3c0-.1-.07-.25-.15-.25-.36,0-.49.43-.67.76-.33.58-.58,1.73-1.2,2.08.02.08.11.13.18.13v.15s-.4.38-.4.48c0,.08.11.26.22.26.27,0,.36-.15.69-.15.24,0,.38.18.67.18.15,0,.29-.05.44-.13.11.25.4.1.62.1-.07.15-.24.15-.24.41,0,.05.09,0,.13,0,.27,0,.47-.38.64-.69.18.21.04.69.22.69.07,0,.11.05.18.05,0,.1.05.3.2.3.22,0,.35-.3.35-.61,0-.25-.15-.23-.15-.53-.13.1-.07.15-.29.15,0-.18-.16-.28-.16-.41,0-.1.2-.15.22-.38-.09,0-.2.03-.24.08,0-.38.02-.61.02-.84-.11.08-.4.08-.64,0l-.27.1v-.13h-.4v-.23l.11-.12c-.09-.1-.22-.13-.35-.13-.15,0-.15.15-.33.2v-.23c.13-.46.6-.74.6-1.3Z"/>
        <path class="st1" d="M364.34,267.61c.22,0,.33-.23.49-.38.11.15.2.25.4.25.22,0,.35-.2.49-.2.18,0,.27-.18.44-.18.16,0,.24.26.4.26.26,0,.38-.26.55-.26h.6c0-.2.31-.48.4-.84-.46-.15-1.77-.69-2.17-.69-.27,0-.38.31-.38.69-.6,0-.65-.81-1.33-.81-.47,0-1,.43-1,1.02,0,.61.53,1.15,1.11,1.15Z"/>
        <path class="st1" d="M225.74,294.03s.11.02.11,0c0-.36-.38-.43-.75-.43.02.05.02.13,0,.18.13.15.44.26.64.26Z"/>
        <path class="st1" d="M196.95,297.29c.35.26,1.13.94,1.64.94h.2v-.23c-.58-.66-1.11-1.27-2.06-1.63-.16-.05-.35-.36-.6-.36-.11,0-.22.08-.31.13h.09s.22.08.33.1c-.02.08-.11.18-.22.23.09.31.71.56,1.15.56-.07.08-.18.08-.22.25Z"/>
        <path class="st1" d="M193.63,293.83c0-.13-.11-.18-.11-.31,0-.25.05-.41,0-.56-.04.12-.13.33-.29.33-.13,0,.13-.28.13-.3-.2-.02-.31-.18-.51-.18v.2c.09.15.18.46.27.46.13,0,.18.28.36.33,0,.05-.09.13-.09.28,0,.2.13.48.31.48.22,0-.18-.38-.18-.48s.11-.15.11-.25Z"/>
        <path class="st1" d="M179.31,289.35v.31c.16.13.27.15.47.33.33-.31.47-.49.86-.72v-.3h-.27c-.4,0-.69.25-1.06.38Z"/>
        <path class="st1" d="M286.32,307.11c-.33-.08-.47.17-.76.17-.31,0-.51-.33-.98-.08v.18c.07.13.24.1.31.13.36.13.64.56,1.02.66,0,.08.11.1.18.1s.13-.1.13-.18c0-.2-.11-.23-.11-.41,0-.1.11-.28.11-.28l.09-.29Z"/>
        <path class="st1" d="M282.57,304.28c.07-.15.13-.71.2-1.02-.07-.03-.09-.15-.09-.28-.11.03-.2.25-.35.25-.04,0-.11.05-.16.05.11.2.18.94.4.99Z"/>
        <path class="st1" d="M282.24,305.32c0,.18-.11.3-.13.51,0,.2,0,.53.22.53.18,0,.58-.36.58-.71,0-.41.06-.64-.14-1.04-.07,0-.13-.15-.29-.15-.2,0-.22.25-.47.33.02.2.22.33.22.53Z"/>
        <path class="st1" d="M278.92,305.88c0-.08-.11-.23-.11-.28-.13.02-.22.1-.35.18.02.02.2.23.29.23.07,0,.18-.05.18-.13Z"/>
        <path class="st1" d="M283.62,291.49c0-.26-.16-.21-.16-.51h-.42v.25c0,.26.24.33.51.33v.2c.02-.13.07-.08.07-.28Z"/>
        <path class="st1" d="M283.88,291.74l-.04-.1s-.09.08-.11.13c.02.02.16.15.31.15.49,0,.31-.89.69-1.02-.11-.43-.13-.66-.58-.66-.15,0-.42.66-.42.76,0,.15.24.35.47.41,0,.13-.15.3-.31.33Z"/>
        <path class="st1" d="M288.65,288.38c-.4.03-.51.48-.51.64,0,.13-.07.23,0,.33.16-.23.33-.35.33-.63,0-.13.13-.23.18-.33Z"/>
        <path class="st1" d="M290.64,288.26c.09,0,.38-.18.38-.26v-.31s.16-.2.18-.33c-.09-.05-.13-.1-.24-.25,0,0-.2.13-.2.25s.09.2.15.3c-.18.03-.31.18-.49.2,0,.15.02.38.22.38Z"/>
        <path class="st1" d="M293.19,309.57c-.38-.13-.91-.25-1.4-.15.24.15.66.2.84.2.16,0,.27.13.55-.05Z"/>
        <path class="st1" d="M298.42,309.11c-.38.07-.95.33-1.29.51,0,.05.07.13.11.13,0,.08.09.13.16.13.2,0,.62-.13.69-.28.02-.08-.03-.23.04-.25.13-.08.24.03.29-.23Z"/>
        <path class="st1" d="M310.52,327.35c.18,0,.35-.2.4-.3-.29,0-.44.05-.64.13.03.13.18.18.24.18Z"/>
        <path class="st1" d="M307.16,275.16s-.29.48-.29.58c0,.26.13.31.4.31.38,0,.64-.25.93-.43v-.33c-.31-.05-.47-.38-.78-.38-.11,0-.15.25-.26.25Z"/>
        <path class="st1" d="M313.52,274.1c0,.31.49.64.78.64,0,0,.29.05.29-.13,0-.51-1.06-1.02-1.06-.51Z"/>
        <path class="st1" d="M321.67,270c-.22-.2-.29-.48-.55-.48-.2,0-.33.28-.33.51,0,.08-.06.25,0,.25.27,0,.78-.18.88-.28Z"/>
        <path class="st1" d="M366.6,269.77h.66c-.02-.58-.47-1.02-1.04-1.02-.51,0-.8.36-1.07.76l.11-.13c.42.18.93.13,1.33.38Z"/>
        <path class="st1" d="M370.99,267.53c.36,0,1-.1,1-.38,0-.13-.09-.26-.22-.26-.09,0-2.42-.33-2.62-.51l.22.2c0,.64,1.04.94,1.62.94Z"/>
        <path class="st1" d="M365.71,268.42c0-.36-.6-.41-.6,0,0,.23.02.33.26.33.16,0,.33-.13.33-.33Z"/>
        <path class="st1" d="M237.82,297.36c-.46-.3-.89-.79-1.57-.61.27.23.91.76,1.26.76.18,0,.24-.02.31-.15Z"/>
        <path class="st1" d="M236.45,299.5s-.09.1-.09.18c0,.18.82.66.98.66.04,0,.27-.13.27-.28v-.15h-.66c-.22-.05-.38-.15-.49-.41Z"/>
        <path class="st1" d="M239,300.34v-.18c-.51,0-.18-.15-.18-.38,0-.1-.11-.15-.16-.25-.2.07-.51.71-.51.87s.13.28.35.28c.24,0,.49-.15.49-.33Z"/>
        <path class="st1" d="M172.06,286.3c-.18,0-.25-.05-.33.18h-.33c.04.1.18.18.27.26h.73c-.05-.26-.07-.43-.33-.43Z"/>
      </g>
    </g>
  </g>
</svg>